<svg width="28" height="28" viewBox="0 0 28 28" fill="none" xmlns="http://www.w3.org/2000/svg">
<path d="M21.7724 3.36011H6.22763C4.64397 3.36011 3.36011 4.64392 3.36011 6.22763V21.7725C3.36011 23.3562 4.64392 24.64 6.22763 24.64H13.8942L13.9073 17.0357H11.9317C11.675 17.0357 11.4666 16.8281 11.4656 16.5714L11.4561 14.1202C11.4551 13.8621 11.6641 13.6523 11.9223 13.6523H13.8943V11.2838C13.8943 8.53523 15.5729 7.03862 18.0248 7.03862H20.0368C20.2942 7.03862 20.503 7.24731 20.503 7.50478V9.57162C20.503 9.82899 20.2944 10.0376 20.0371 10.0378L18.8024 10.0384C17.4689 10.0384 17.2107 10.672 17.2107 11.6019V13.6523H20.1407C20.4199 13.6523 20.6365 13.8961 20.6036 14.1734L20.3131 16.6245C20.2853 16.8591 20.0864 17.0358 19.8502 17.0358H17.2238L17.2107 24.6401H21.7725C23.3561 24.6401 24.6399 23.3563 24.6399 21.7726V6.22763C24.6399 4.64392 23.3561 3.36011 21.7724 3.36011Z" fill="#BFC8E1"/>
</svg>
