<svg  viewBox="0 0 48 48" fill="none" xmlns="http://www.w3.org/2000/svg">
<path d="M33.9999 4V8H40.0131C41.1103 8 41.9999 8.8899 41.9999 9.9868V42.0132C41.9999 43.1104 41.1101 44 40.0131 44H7.98674C6.88946 44 5.99994 43.1102 5.99994 42.0132V9.9868C5.99994 8.88952 6.88984 8 7.98674 8H13.9999V4H33.9999ZM13.9999 12H9.99994V40H37.9999V12H33.9999V16H13.9999V12ZM17.9999 32V36H13.9999V32H17.9999ZM17.9999 26V30H13.9999V26H17.9999ZM17.9999 20V24H13.9999V20H17.9999ZM29.9999 8H17.9999V12H29.9999V8Z" fill="currentColor"/>
</svg>
