<svg width="29" height="30" viewBox="0 0 29 30" fill="none" xmlns="http://www.w3.org/2000/svg">
<path d="M28.3289 13.6875H14.8758V17.6719H24.532C24.0164 23.2032 19.5164 25.5938 15.157 25.5938C9.62575 25.5938 4.70388 21.2813 4.70388 15.0469C4.70388 9.04692 9.39138 4.50005 15.157 4.50005C19.5633 4.50005 22.2351 7.35942 22.2351 7.35942L24.9539 4.50005C24.9539 4.50005 21.2976 0.515677 14.9695 0.515677C6.62575 0.468802 0.250732 7.45317 0.250732 15C0.250732 22.3125 6.25075 29.5313 15.1101 29.5313C22.9383 29.5313 28.5633 24.2344 28.5633 16.3125C28.6101 14.6719 28.3289 13.6875 28.3289 13.6875Z" fill="#F5F5F5"/>
</svg>
