<svg width="28" height="28" viewBox="0 0 28 28" fill="none" xmlns="http://www.w3.org/2000/svg">
<path d="M14 4.81811C16.9905 4.81811 17.3447 4.82949 18.5257 4.88337C19.6177 4.93321 20.2107 5.11567 20.6054 5.26901C21.1282 5.47218 21.5013 5.71492 21.8932 6.10683C22.2851 6.49873 22.5279 6.87187 22.731 7.39461C22.8844 7.78931 23.0668 8.38234 23.1167 9.47429C23.1705 10.6553 23.1819 11.0095 23.1819 14.0001C23.1819 16.9906 23.1705 17.3448 23.1167 18.5258C23.0668 19.6178 22.8844 20.2108 22.731 20.6055C22.5279 21.1283 22.2851 21.5014 21.8932 21.8933C21.5013 22.2852 21.1282 22.528 20.6054 22.7311C20.2107 22.8845 19.6177 23.0669 18.5257 23.1168C17.3449 23.1707 16.9907 23.182 14 23.182C11.0092 23.182 10.655 23.1707 9.47423 23.1168C8.38224 23.0669 7.78921 22.8845 7.39455 22.7311C6.87176 22.528 6.49862 22.2852 6.10672 21.8933C5.71482 21.5014 5.47208 21.1283 5.26894 20.6055C5.11556 20.2108 4.93311 19.6178 4.88327 18.5259C4.82938 17.3448 4.818 16.9906 4.818 14.0001C4.818 11.0095 4.82938 10.6553 4.88327 9.47433C4.93311 8.38234 5.11556 7.78931 5.26894 7.39461C5.47208 6.87187 5.71482 6.49873 6.10672 6.10683C6.49862 5.71492 6.87176 5.47218 7.39455 5.26901C7.78921 5.11567 8.38224 4.93321 9.47418 4.88337C10.6552 4.82949 11.0094 4.81811 14 4.81811ZM14 2.80005C10.9582 2.80005 10.5768 2.81294 9.38224 2.86745C8.19009 2.92187 7.37597 3.11117 6.66352 3.38806C5.92702 3.67428 5.30242 4.05725 4.67978 4.67989C4.05714 5.30253 3.67417 5.92712 3.38795 6.66362C3.11106 7.37607 2.92176 8.19019 2.86734 9.38235C2.81284 10.5769 2.79999 10.9583 2.79999 14.0001C2.79999 17.0418 2.81284 17.4232 2.86734 18.6178C2.92176 19.8099 3.11106 20.6241 3.38795 21.3365C3.67417 22.073 4.05714 22.6976 4.67978 23.3203C5.30242 23.9429 5.92702 24.3259 6.66352 24.6121C7.37597 24.889 8.19009 25.0783 9.38224 25.1327C10.5768 25.1872 10.9582 25.2001 14 25.2001C17.0417 25.2001 17.4231 25.1872 18.6177 25.1327C19.8098 25.0783 20.624 24.889 21.3364 24.6121C22.0729 24.3259 22.6975 23.9429 23.3202 23.3203C23.9428 22.6976 24.3258 22.073 24.612 21.3365C24.8889 20.6241 25.0782 19.8099 25.1326 18.6178C25.1871 17.4232 25.2 17.0418 25.2 14.0001C25.2 10.9583 25.1871 10.5769 25.1326 9.38235C25.0782 8.19019 24.8889 7.37607 24.612 6.66362C24.3258 5.92712 23.9428 5.30253 23.3202 4.67989C22.6975 4.05725 22.0729 3.67428 21.3364 3.38806C20.624 3.11117 19.8098 2.92187 18.6177 2.86745C17.4231 2.81294 17.0417 2.80005 14 2.80005ZM14 8.2487C10.8236 8.2487 8.2486 10.8237 8.2486 14.0001C8.2486 17.1765 10.8236 19.7514 14 19.7514C17.1763 19.7514 19.7513 17.1765 19.7513 14.0001C19.7513 10.8237 17.1763 8.2487 14 8.2487ZM14 17.7334C11.9381 17.7334 10.2666 16.0619 10.2666 14.0001C10.2666 11.9382 11.9381 10.2667 14 10.2667C16.0618 10.2667 17.7333 11.9382 17.7333 14.0001C17.7333 16.0619 16.0618 17.7334 14 17.7334ZM21.3225 8.02147C21.3225 8.76375 20.7208 9.3655 19.9786 9.3655C19.2363 9.3655 18.6345 8.76375 18.6345 8.02147C18.6345 7.2792 19.2363 6.67749 19.9786 6.67749C20.7208 6.67749 21.3225 7.2792 21.3225 8.02147Z" fill="#BFC8E1"/>
</svg>
