<svg width="28" height="28" viewBox="0 0 28 28" fill="none" xmlns="http://www.w3.org/2000/svg">
<path d="M23.1737 2.80005H4.82625C3.70719 2.80005 2.79999 3.70725 2.79999 4.82631V23.1737C2.79999 24.2929 3.70719 25.2001 4.82625 25.2001H23.1737C24.2928 25.2001 25.2 24.2929 25.2 23.1737V4.82631C25.2 3.70725 24.2928 2.80005 23.1737 2.80005ZM9.7315 22.1417C9.7315 22.4674 9.46751 22.7314 9.14183 22.7314H6.63174C6.30606 22.7314 6.04207 22.4674 6.04207 22.1417V11.6195C6.04207 11.2938 6.30606 11.0298 6.63174 11.0298H9.14183C9.46751 11.0298 9.7315 11.2938 9.7315 11.6195V22.1417ZM7.88678 10.0379C6.56981 10.0379 5.50218 8.97031 5.50218 7.65334C5.50218 6.33638 6.56981 5.26874 7.88678 5.26874C9.20375 5.26874 10.2714 6.33638 10.2714 7.65334C10.2714 8.97031 9.20381 10.0379 7.88678 10.0379ZM22.8492 22.1892C22.8492 22.4886 22.6064 22.7314 22.307 22.7314H19.6135C19.3141 22.7314 19.0713 22.4886 19.0713 22.1892V17.2537C19.0713 16.5174 19.2873 14.0273 17.1472 14.0273C15.4872 14.0273 15.1505 15.7317 15.0829 16.4966V22.1892C15.0829 22.4886 14.8402 22.7314 14.5407 22.7314H11.9356C11.6362 22.7314 11.3934 22.4886 11.3934 22.1892V11.572C11.3934 11.2726 11.6362 11.0298 11.9356 11.0298H14.5407C14.8401 11.0298 15.0829 11.2726 15.0829 11.572V12.49C15.6984 11.5662 16.6132 10.8533 18.5609 10.8533C22.8738 10.8533 22.8492 14.8827 22.8492 17.0966V22.1892Z" fill="#BFC8E1"/>
</svg>
