<svg width="40" height="40" viewBox="0 0 40 40" fill="none" xmlns="http://www.w3.org/2000/svg">
<path d="M32.3612 11.1316C34.0782 12.9544 35.0002 15.0001 35.0002 18.3162C35.0002 24.1486 30.906 29.3772 24.9492 31.9614L23.4613 29.6654C29.0202 26.6577 30.1065 22.7566 30.5408 20.2967C29.6458 20.7596 28.4742 20.9222 27.3257 20.8159C24.3183 20.5371 21.9482 18.0682 21.9482 15.0001C21.9482 11.7784 24.5598 9.16675 27.7815 9.16675C29.57 9.16675 31.2802 9.98416 32.3612 11.1316ZM15.6945 11.1316C17.4115 12.9544 18.3335 15.0001 18.3335 18.3162C18.3335 24.1486 14.2393 29.3772 8.28252 31.9614L6.7947 29.6654C12.3534 26.6577 13.4399 22.7566 13.8741 20.2967C12.9791 20.7596 11.8075 20.9222 10.659 20.8159C7.6517 20.5371 5.28159 18.0682 5.28159 15.0001C5.28159 11.7784 7.89325 9.16675 11.1149 9.16675C12.9033 9.16675 14.6136 9.98416 15.6945 11.1316Z" fill="currentColor"/>
</svg>
