<svg width="18" height="18" viewBox="0 0 18 18" fill="none" xmlns="http://www.w3.org/2000/svg">
<path d="M8.62248 1.0781C8.74751 0.721028 9.25249 0.721028 9.37752 1.0781L11.2714 6.48633C11.3264 6.6436 11.4732 6.75025 11.6398 6.75403L17.3686 6.88393C17.7468 6.89251 17.9028 7.37277 17.6019 7.60203L13.0436 11.0744C12.911 11.1754 12.855 11.3479 12.9028 11.5075L14.5496 16.9961C14.6583 17.3584 14.2498 17.6553 13.9387 17.4399L9.22772 14.1777C9.09072 14.0828 8.90928 14.0828 8.77228 14.1777L4.06126 17.4399C3.75022 17.6553 3.34169 17.3584 3.45041 16.9961L5.09715 11.5075C5.14504 11.3479 5.08897 11.1754 4.95642 11.0744L0.398104 7.60203C0.0971509 7.37277 0.253196 6.89251 0.631426 6.88393L6.36019 6.75403C6.52678 6.75025 6.67357 6.6436 6.72865 6.48633L8.62248 1.0781Z" fill="currentColor"/>
</svg>
