<svg width="320" height="320" viewBox="0 0 320 320" fill="none" xmlns="http://www.w3.org/2000/svg">
<path d="M208.403 29.0048C208.403 29.0048 159.392 11.5712 111.283 39.3216C63.1744 67.072 38.8928 122.15 18.048 166.272C-2.79681 210.394 9.19679 255.27 45.9264 275.712C82.656 296.154 107.629 266.01 159.149 264.544C210.669 263.078 224.525 270.438 267.309 241.338C310.093 212.237 317.786 143.494 284.064 92.6336C250.342 41.7728 208.403 29.0048 208.403 29.0048Z" fill="#314D9E"/>
<path opacity="0.8" d="M208.403 29.0048C208.403 29.0048 159.392 11.5712 111.283 39.3216C63.1744 67.072 38.8928 122.15 18.048 166.272C-2.79681 210.394 9.19679 255.27 45.9264 275.712C82.656 296.154 107.629 266.01 159.149 264.544C210.669 263.078 224.525 270.438 267.309 241.338C310.093 212.237 317.786 143.494 284.064 92.6336C250.342 41.7728 208.403 29.0048 208.403 29.0048Z" fill="white"/>
<path d="M11.3472 293.382H308.307" stroke="#263238" stroke-linecap="round" stroke-linejoin="round"/>
<path d="M235.776 22.0608H177.28V241.907H235.776V22.0608Z" stroke="#263238" stroke-linecap="round" stroke-linejoin="round"/>
<path d="M310.08 22.0607H175.795C175.559 22.0607 175.333 21.967 175.166 21.8001C174.999 21.6333 174.906 21.407 174.906 21.1711C174.906 20.9352 174.999 20.7089 175.166 20.5421C175.333 20.3752 175.559 20.2815 175.795 20.2815H310.08C310.317 20.2815 310.543 20.375 310.711 20.5417C310.879 20.7083 310.974 20.9346 310.976 21.1711C310.974 21.4076 310.879 21.6339 310.711 21.8005C310.543 21.9672 310.317 22.0607 310.08 22.0607Z" fill="#263238" stroke="#263238" stroke-linecap="round" stroke-linejoin="round"/>
<path d="M235.686 187.84H307.392" stroke="#263238" stroke-linecap="round" stroke-linejoin="round"/>
<path d="M235.686 183.571H307.392" stroke="#263238" stroke-linecap="round" stroke-linejoin="round"/>
<path d="M235.686 100.8H307.392" stroke="#263238" stroke-linecap="round" stroke-linejoin="round"/>
<path d="M235.686 104.557H307.392" stroke="#263238" stroke-linecap="round" stroke-linejoin="round"/>
<path d="M181.523 22.3872V39.2704" stroke="#263238" stroke-linecap="round" stroke-linejoin="round"/>
<path d="M184.262 24.8894V133.849" stroke="#263238" stroke-linecap="round" stroke-linejoin="round"/>
<path d="M190.906 22.1824V35.3088" stroke="#263238" stroke-linecap="round" stroke-linejoin="round"/>
<path d="M190.906 38.4319V45.7279" stroke="#263238" stroke-linecap="round" stroke-linejoin="round"/>
<path d="M229.786 41.3503V44.4799" stroke="#263238" stroke-linecap="round" stroke-linejoin="round"/>
<path d="M229.786 22.3872V38.432" stroke="#263238" stroke-linecap="round" stroke-linejoin="round"/>
<path d="M198.131 57.395V59.8974" stroke="#263238" stroke-linecap="round" stroke-linejoin="round"/>
<path d="M198.131 25.1006V54.4766" stroke="#263238" stroke-linecap="round" stroke-linejoin="round"/>
<path d="M202.432 24.8894V34.0606" stroke="#263238" stroke-linecap="round" stroke-linejoin="round"/>
<path d="M224.704 24.8894V34.0606" stroke="#263238" stroke-linecap="round" stroke-linejoin="round"/>
<path d="M207.904 22.1824V100.57" stroke="#263238" stroke-linecap="round" stroke-linejoin="round"/>
<path d="M215.13 22.5984V26.7648" stroke="#263238" stroke-linecap="round" stroke-linejoin="round"/>
<path d="M219.43 22.5984V78.1696" stroke="#263238" stroke-linecap="round" stroke-linejoin="round"/>
<path d="M212.787 25.9326V37.5998" stroke="#263238" stroke-linecap="round" stroke-linejoin="round"/>
<path d="M249.536 89.3823L248.026 91.2639" stroke="#263238" stroke-linecap="round" stroke-linejoin="round"/>
<path d="M281.146 51.6287L251.974 86.3423" stroke="#263238" stroke-linecap="round" stroke-linejoin="round"/>
<path d="M274.605 71.7439L263.392 85.0367" stroke="#263238" stroke-linecap="round" stroke-linejoin="round"/>
<path d="M249.536 172.154L248.026 174.042" stroke="#263238" stroke-linecap="round" stroke-linejoin="round"/>
<path d="M282.253 131.443L251.974 169.114" stroke="#263238" stroke-linecap="round" stroke-linejoin="round"/>
<path d="M274.605 154.521L263.392 167.808" stroke="#263238" stroke-linecap="round" stroke-linejoin="round"/>
<path d="M286.688 104.589V182.432" stroke="#263238" stroke-linecap="round" stroke-linejoin="round"/>
<path d="M286.688 21.6958V100.646" stroke="#263238" stroke-linecap="round" stroke-linejoin="round"/>
<path d="M290.566 104.685V182.432" stroke="#263238" stroke-linecap="round" stroke-linejoin="round"/>
<path d="M290.566 21.6958V100.608" stroke="#263238" stroke-linecap="round" stroke-linejoin="round"/>
<path d="M154.317 85.8433H22.3424V89.1073H154.317V85.8433Z" stroke="#263238" stroke-linecap="round" stroke-linejoin="round"/>
<path d="M167.386 116.551H9.28V119.815H167.386V116.551Z" stroke="#263238" stroke-linecap="round" stroke-linejoin="round"/>
<path d="M35.6288 49.1711V85.7599H66.56V49.1711H35.6288ZM65.3184 84.2943H36.864V50.6303H65.3184V84.2943Z" fill="#263238" stroke="#263238" stroke-linecap="round" stroke-linejoin="round"/>
<path d="M88.1152 91.2896V116.25H109.235V91.2896H88.1152ZM108.365 115.251H88.96V92.2816H108.371L108.365 115.251Z" fill="#263238" stroke="#263238" stroke-linecap="round" stroke-linejoin="round"/>
<path d="M73.088 64V85.76H91.52V64H73.088ZM89.3056 83.2H75.2768V66.56H89.3056V83.2Z" fill="#263238" stroke="#263238" stroke-linecap="round" stroke-linejoin="round"/>
<path d="M19.0784 94.4641V116.224H37.4848V94.4641H19.0784ZM35.296 113.664H21.2672V97.0561H35.296V113.664Z" fill="#263238" stroke="#263238" stroke-linecap="round" stroke-linejoin="round"/>
<path d="M42.5984 102.074V116.243H54.5792V102.074H42.5984ZM53.152 114.56H44.0256V103.763H53.152V114.56Z" fill="#263238" stroke="#263238" stroke-linecap="round" stroke-linejoin="round"/>
<path d="M69.1648 102.074V116.243H81.1456V102.074H69.1648ZM79.7184 114.56H70.592V103.763H79.7184V114.56Z" fill="#263238" stroke="#263238" stroke-linecap="round" stroke-linejoin="round"/>
<path d="M115.162 76.0129H122.138C122.574 76.0129 122.992 76.1862 123.301 76.4947C123.609 76.8032 123.782 77.2215 123.782 77.6577V85.7601H113.542V77.6641C113.541 77.2312 113.71 76.815 114.013 76.5059C114.316 76.1968 114.729 76.0197 115.162 76.0129Z" stroke="#263238" stroke-linecap="round" stroke-linejoin="round"/>
<path d="M121.747 73.7153H115.552V75.9425H121.747V73.7153Z" stroke="#263238" stroke-linecap="round" stroke-linejoin="round"/>
<path d="M119.91 73.6448C120.836 71.3214 121.927 69.0671 123.174 66.8992C124.704 64.4992 128.403 62.5408 130.797 62.5408C133.19 62.5408 137.766 65.152 140.819 68.64" stroke="#263238" stroke-linecap="round" stroke-linejoin="round"/>
<path d="M128.403 63.1938C128.403 63.1938 129.683 58.8418 133.632 57.0946C137.581 55.3474 141.472 56.0066 142.125 55.3538" stroke="#263238" stroke-linecap="round" stroke-linejoin="round"/>
<path d="M117.862 73.6002C117.855 71.82 117.273 70.0897 116.205 68.6658C114.464 66.4898 110.33 65.613 107.712 67.3858C106.054 68.5272 104.585 69.9224 103.36 71.5202" stroke="#263238" stroke-linecap="round" stroke-linejoin="round"/>
<path d="M110.982 66.6816C110.982 66.6816 108.16 69.5104 107.52 72.32C107.158 74.2727 107.233 76.2811 107.738 78.2016" stroke="#263238" stroke-linecap="round" stroke-linejoin="round"/>
<path d="M123.174 66.8993C125.427 62.6689 124.928 57.7089 126.624 53.3121C128.378 48.7745 132.333 46.3233 137.114 45.9905" stroke="#263238" stroke-linecap="round" stroke-linejoin="round"/>
<path d="M103.731 70.9761C103.731 70.9761 101.939 70.9761 101.344 72.4033C100.986 73.3116 100.863 74.2955 100.986 75.2641C101.49 75.151 101.96 74.9172 102.355 74.5828C102.749 74.2484 103.057 73.8234 103.251 73.3441C103.968 71.6801 103.731 70.9761 103.731 70.9761Z" fill="#314D9E"/>
<path d="M107.008 67.7185C107.008 67.7185 106.317 66.0673 104.768 66.0737C103.791 66.0922 102.836 66.3587 101.99 66.8481C102.289 67.2691 102.684 67.6117 103.143 67.8469C103.602 68.082 104.111 68.2026 104.627 68.1985C106.438 68.2177 107.008 67.7185 107.008 67.7185Z" fill="#314D9E"/>
<path d="M106.982 74.6881C106.982 74.6881 105.44 73.7793 104.198 74.6881C103.426 75.2855 102.818 76.0696 102.432 76.9665C102.923 77.1274 103.445 77.1672 103.954 77.0825C104.463 76.9978 104.945 76.7911 105.357 76.4801C106.822 75.4241 106.982 74.6881 106.982 74.6881Z" fill="#314D9E"/>
<path d="M107.648 77.6321C107.648 77.6321 106.298 78.8097 106.784 80.2753C107.111 81.1963 107.666 82.0197 108.397 82.6689C108.702 82.254 108.903 81.7714 108.982 81.2622C109.062 80.753 109.017 80.2322 108.851 79.7441C108.294 78.0161 107.648 77.6321 107.648 77.6321Z" fill="#314D9E"/>
<path d="M107.578 71.392C107.578 71.392 107.123 73.12 108.352 74.0608C109.139 74.6379 110.059 75.0056 111.027 75.1296C111.046 74.6135 110.939 74.1006 110.716 73.6347C110.493 73.1689 110.161 72.7639 109.747 72.4544C108.326 71.3408 107.578 71.392 107.578 71.392Z" fill="#314D9E"/>
<path d="M109.19 66.272C109.19 66.272 109.728 64.5696 108.55 63.5648C107.793 62.9499 106.893 62.536 105.933 62.3616C105.888 62.8746 105.967 63.391 106.164 63.8667C106.362 64.3425 106.671 64.7636 107.066 65.0944C108.435 66.2848 109.19 66.272 109.19 66.272Z" fill="#314D9E"/>
<path d="M112.397 66.4447C112.397 66.4447 113.722 65.2479 113.21 63.7823C112.863 62.8761 112.296 62.0708 111.558 61.4399C111.259 61.8594 111.066 62.345 110.994 62.8553C110.923 63.3657 110.976 63.8857 111.149 64.3711C111.738 66.0735 112.397 66.4447 112.397 66.4447Z" fill="#314D9E"/>
<path d="M130.515 59.2896C130.515 59.2896 131.84 58.0928 131.328 56.6336C130.986 55.718 130.418 54.9035 129.677 54.2656C129.378 54.6864 129.185 55.1734 129.114 55.6849C129.044 56.1964 129.099 56.7174 129.274 57.2032C129.856 58.9184 130.515 59.2896 130.515 59.2896Z" fill="#314D9E"/>
<path d="M135.763 56.5504C135.763 56.5504 137.088 55.3536 136.576 53.888C136.232 52.9747 135.665 52.1626 134.925 51.5264C134.626 51.9459 134.432 52.4314 134.361 52.9418C134.289 53.4521 134.342 53.9721 134.515 54.4576C135.104 56.1792 135.763 56.5504 135.763 56.5504Z" fill="#314D9E"/>
<path d="M140.16 55.712C140.16 55.712 141.485 54.5152 140.973 53.056C140.628 52.1415 140.061 51.3275 139.322 50.688C139.022 51.1088 138.829 51.5957 138.759 52.1073C138.689 52.6188 138.744 53.1397 138.918 53.6256C139.52 55.3408 140.16 55.712 140.16 55.712Z" fill="#314D9E"/>
<path d="M110.483 71.1808C110.483 71.1808 112.275 71.1232 112.826 69.6768C113.155 68.7567 113.246 67.7678 113.088 66.8032C112.589 66.9313 112.128 67.1779 111.745 67.5222C111.362 67.8665 111.067 68.2983 110.886 68.7808C110.227 70.4768 110.483 71.1808 110.483 71.1808Z" fill="#314D9E"/>
<path d="M139.334 59.7121C139.334 59.7121 139.731 57.9713 138.47 57.0689C137.667 56.5141 136.735 56.1727 135.763 56.0769C135.759 56.5927 135.88 57.1019 136.115 57.561C136.35 58.0201 136.693 58.4156 137.114 58.7137C138.579 59.7825 139.334 59.7121 139.334 59.7121Z" fill="#314D9E"/>
<path d="M143.622 59.5969C143.622 59.5969 144.026 57.8497 142.765 56.9473C141.96 56.3937 141.029 56.0525 140.058 55.9553C140.057 56.474 140.183 56.9849 140.423 57.4443C140.664 57.9036 141.013 58.2975 141.44 58.5921C142.874 59.6673 143.622 59.5969 143.622 59.5969Z" fill="#314D9E"/>
<path d="M105.734 73.2034C105.734 73.2034 107.315 72.3714 107.174 70.829C107.067 69.8577 106.717 68.9289 106.157 68.1282C105.764 68.4622 105.457 68.8863 105.263 69.3643C105.069 69.8424 104.994 70.3603 105.043 70.8738C105.19 72.685 105.734 73.2034 105.734 73.2034Z" fill="#314D9E"/>
<path d="M123.974 70.5858C123.974 70.5858 125.555 69.7474 125.414 68.205C125.307 67.2336 124.957 66.3049 124.397 65.5042C124.004 65.8381 123.697 66.2622 123.503 66.7403C123.309 67.2184 123.234 67.7362 123.283 68.2498C123.43 70.061 123.974 70.5858 123.974 70.5858Z" fill="#314D9E"/>
<path d="M120.544 65.0242C120.544 65.0242 119.264 66.3042 119.821 67.7122C120.194 68.6148 120.791 69.4077 121.555 70.0162C121.839 69.5859 122.014 69.0936 122.066 68.581C122.119 68.0685 122.047 67.5509 121.856 67.0722C121.21 65.3762 120.544 65.0242 120.544 65.0242Z" fill="#314D9E"/>
<path d="M128.39 67.9617C128.39 67.9617 129.971 67.1233 129.83 65.5809C129.723 64.6105 129.371 63.6833 128.806 62.8865C128.415 63.2205 128.11 63.6438 127.918 64.1206C127.725 64.5975 127.65 65.1137 127.699 65.6257C127.84 67.4369 128.39 67.9617 128.39 67.9617Z" fill="#314D9E"/>
<path d="M133.76 67.968C133.76 67.968 135.078 66.7584 134.547 65.2992C134.194 64.3882 133.617 63.5805 132.87 62.9504C132.568 63.376 132.374 63.8691 132.306 64.3867C132.238 64.9044 132.298 65.4308 132.48 65.92C133.069 67.6032 133.76 67.968 133.76 67.968Z" fill="#314D9E"/>
<path d="M137.901 70.2337C137.901 70.2337 139.219 69.0241 138.688 67.5649C138.335 66.6538 137.758 65.8461 137.011 65.2161C136.717 65.6396 136.53 66.1279 136.465 66.6393C136.401 67.1508 136.461 67.6703 136.64 68.1537C137.242 69.8689 137.901 70.2337 137.901 70.2337Z" fill="#314D9E"/>
<path d="M143.245 65.0945C143.245 65.0945 142.118 63.7121 140.634 64.1537C139.701 64.4498 138.86 64.9784 138.189 65.6897C138.594 66.0083 139.071 66.2242 139.578 66.3189C140.085 66.4137 140.608 66.3844 141.101 66.2337C142.842 65.7345 143.245 65.0945 143.245 65.0945Z" fill="#314D9E"/>
<path d="M137.632 49.5489C137.632 49.5489 137.632 47.7633 136.192 47.1681C135.283 46.8141 134.299 46.6952 133.331 46.8226C133.445 47.3261 133.679 47.7945 134.014 48.1879C134.348 48.5813 134.773 48.888 135.251 49.0817C136.915 49.7921 137.632 49.5489 137.632 49.5489Z" fill="#314D9E"/>
<path d="M135.482 42.2913C135.482 42.2913 133.709 42.5345 133.312 44.0321C133.08 44.9819 133.093 45.9752 133.35 46.9185C133.834 46.7387 134.267 46.4445 134.613 46.0612C134.958 45.6778 135.206 45.2166 135.334 44.7169C135.814 42.9697 135.482 42.2913 135.482 42.2913Z" fill="#314D9E"/>
<path d="M132.742 51.936C132.742 51.936 132.742 50.144 131.309 49.5552C130.398 49.1962 129.412 49.075 128.442 49.2031C128.556 49.7067 128.79 50.1751 129.124 50.5685C129.459 50.9619 129.883 51.2686 130.362 51.4624C132.032 52.1728 132.742 51.936 132.742 51.936Z" fill="#314D9E"/>
<path d="M130.592 44.6721C130.592 44.6721 128.819 44.9217 128.422 46.4193C128.194 47.3674 128.207 48.3577 128.461 49.2993C128.944 49.1201 129.376 48.827 129.722 48.4448C130.067 48.0626 130.315 47.6027 130.445 47.1041C130.925 45.3505 130.592 44.6721 130.592 44.6721Z" fill="#314D9E"/>
<path d="M130.918 54.8994C130.918 54.8994 129.811 53.4978 128.32 53.9202C127.386 54.2006 126.538 54.7137 125.856 55.4114C126.256 55.7367 126.728 55.9607 127.233 56.0643C127.737 56.1679 128.26 56.1481 128.755 56.0066C130.509 55.533 130.918 54.8994 130.918 54.8994Z" fill="#314D9E"/>
<path d="M124.736 50.5601C124.736 50.5601 123.494 51.8401 124.096 53.2673C124.501 54.1564 125.124 54.929 125.907 55.5137C126.176 55.0733 126.335 54.5745 126.369 54.0596C126.404 53.5448 126.313 53.0292 126.106 52.5569C125.44 50.8545 124.736 50.5601 124.736 50.5601Z" fill="#314D9E"/>
<path d="M129.606 60.9792C129.606 60.9792 128.499 59.5776 127.008 60C126.075 60.2827 125.227 60.7955 124.544 61.4912C124.944 61.8165 125.416 62.0405 125.921 62.1441C126.425 62.2478 126.948 62.228 127.443 62.0864C129.197 61.6128 129.606 60.9792 129.606 60.9792Z" fill="#314D9E"/>
<path d="M123.424 56.6082C123.424 56.6082 122.182 57.8882 122.784 59.3154C123.189 60.2045 123.812 60.9771 124.595 61.5618C124.864 61.1214 125.023 60.6226 125.057 60.1077C125.092 59.5929 125.001 59.0773 124.794 58.605C124.109 56.9602 123.424 56.6082 123.424 56.6082Z" fill="#314D9E"/>
<path d="M138.24 62.4705C138.24 62.4705 137.107 61.0881 135.622 61.5297C134.69 61.8258 133.849 62.3544 133.178 63.0657C133.583 63.3843 134.06 63.6002 134.567 63.6949C135.074 63.7896 135.596 63.7604 136.09 63.6097C137.837 63.1105 138.24 62.4705 138.24 62.4705Z" fill="#314D9E"/>
<path d="M135.379 59.52C135.379 59.52 134.246 58.1312 132.762 58.5792C131.831 58.8753 130.99 59.4014 130.317 60.1088C130.722 60.4286 131.198 60.6456 131.705 60.7415C132.212 60.8373 132.735 60.8091 133.229 60.6592C134.976 60.16 135.379 59.52 135.379 59.52Z" fill="#314D9E"/>
<path d="M146.56 54.8416C146.56 54.8416 145.427 53.4592 143.942 53.9008C143.01 54.1969 142.169 54.7255 141.498 55.4368C141.903 55.7554 142.38 55.9713 142.887 56.066C143.394 56.1607 143.916 56.1315 144.41 55.9808C146.182 55.4816 146.56 54.8416 146.56 54.8416Z" fill="#314D9E"/>
<path d="M141.696 45.4402C141.696 45.4402 140.563 44.0514 139.078 44.493C138.149 44.7919 137.311 45.3201 136.64 46.029C137.044 46.3477 137.52 46.5641 138.025 46.6599C138.531 46.7558 139.053 46.7281 139.546 46.5794C141.293 46.0802 141.696 45.4402 141.696 45.4402Z" fill="#314D9E"/>
<path d="M141.715 73.6001C141.715 73.6001 143.034 72.3905 142.502 70.9377C142.152 70.0251 141.575 69.2168 140.826 68.5889C140.532 69.0124 140.344 69.5007 140.28 70.0122C140.215 70.5236 140.275 71.0431 140.454 71.5265C141.056 73.2033 141.715 73.6001 141.715 73.6001Z" fill="#314D9E"/>
<path d="M124.883 116.243H131.706C134.016 114.675 135.59 111.558 135.59 107.968C135.616 105.805 135.001 103.683 133.824 101.869H122.765C121.588 103.683 120.973 105.805 120.998 107.968C120.998 111.558 122.573 114.675 124.883 116.243Z" stroke="#263238" stroke-linecap="round" stroke-linejoin="round"/>
<path d="M146.918 92.5952H142.56V116.55H146.918V92.5952Z" stroke="#263238" stroke-linecap="round" stroke-linejoin="round"/>
<path d="M151.706 92.5952H147.347V116.55H151.706V92.5952Z" stroke="#263238" stroke-linecap="round" stroke-linejoin="round"/>
<path d="M156.499 92.5952H152.141V116.55H156.499V92.5952Z" stroke="#263238" stroke-linecap="round" stroke-linejoin="round"/>
<path d="M37.0752 226.624C35.3449 222.988 34.955 218.858 35.9744 214.963C37.664 208.32 38.2784 209.434 36.5184 205.606C34.7584 201.779 33.2352 200.998 34.2848 197.715C35.3344 194.432 37.1392 189.299 36.4864 186.195C35.8336 183.091 34.4128 181.811 35.0528 178.451C35.6928 175.091 37.6704 173.472 36.704 169.805C35.7376 166.138 34.048 166.31 34.688 162.944C35.328 159.578 36.224 159.322 35.968 156.282C35.712 153.242 36.416 151.802 36.416 151.802C36.416 151.802 37.5744 156.557 38.336 159.187C39.0976 161.818 39.2064 163.334 38.8416 165.254C38.4768 167.174 42.8288 170.502 42.9568 172.019C43.0848 173.536 44.0128 175.219 42.5664 178.419C41.12 181.619 40.7552 183.539 41.5872 185.696C42.4192 187.853 43.3216 187.52 42.496 191.846C41.6704 196.173 39.168 196.186 41.024 199.526C42.88 202.867 43.9936 203.578 43.136 205.926C42.2784 208.275 40.9216 210.982 41.4464 212.576C41.7517 213.368 42.1243 214.132 42.56 214.861C43.6245 216.749 43.9808 218.954 43.5648 221.082L43.3152 222.394L44.128 229.018L40.1792 232.25C40.1792 232.25 38.3488 230.854 37.0752 226.624Z" fill="#314D9E"/>
<path d="M32.5184 227.2C31.3755 225.929 30.4975 224.443 29.936 222.829C29.3744 221.214 29.1405 219.504 29.248 217.798C29.6576 212.077 30.4768 212.896 28.0256 210.035C25.5744 207.174 23.936 206.771 24.3456 203.91C24.7552 201.049 25.5744 196.557 24.3456 194.105C23.1168 191.654 21.4848 190.835 21.4848 187.974C21.4848 185.113 23.1232 183.494 21.4848 180.621C19.8464 177.747 18.2144 178.169 18.2144 175.309C18.2144 172.448 19.0336 169.997 18.2144 167.545C17.3952 165.094 17.9328 165.625 17.9328 165.625C17.9328 165.625 19.8528 169.613 21.0752 171.654C22.2976 173.696 22.7136 174.925 22.7136 176.557C22.7136 178.189 27.616 180.237 28.0256 181.459C28.4352 182.681 29.6576 183.917 28.8384 186.771C28.0192 189.625 28.0256 191.251 29.248 192.902C30.4704 194.553 31.2896 194.131 31.2896 197.805C31.2896 201.478 28.8384 201.888 31.2896 204.345C33.7408 206.803 34.9696 207.2 34.56 209.248C34.1504 211.296 33.3376 213.728 34.1504 214.963C34.4586 215.391 34.801 215.794 35.1744 216.166C36.8736 217.918 37.826 220.261 37.8304 222.701L39.872 228.013L36.6016 231.283C36.6016 231.283 34.56 230.464 32.5184 227.2Z" fill="#314D9E"/>
<path d="M55.808 227.2C56.9492 225.928 57.8256 224.442 58.386 222.827C58.9464 221.213 59.1796 219.504 59.072 217.798C58.6688 212.077 57.8496 212.896 60.3008 210.035C62.752 207.174 64.384 206.771 63.9808 203.91C63.5776 201.049 62.752 196.557 63.9808 194.105C65.2096 191.654 66.8352 190.835 66.8352 187.974C66.8352 185.113 65.2032 183.494 66.8352 180.621C68.4672 177.747 70.1056 178.169 70.1056 175.309C70.1056 172.448 69.2864 169.997 70.1056 167.545C70.9248 165.094 69.9456 166.496 69.9456 166.496C69.9456 166.496 68.4736 169.587 67.2448 171.616C66.016 173.645 65.6128 174.886 65.6128 176.518C65.6128 178.15 60.7104 180.198 60.3008 181.421C59.8912 182.643 58.6688 183.878 59.4816 186.733C60.2944 189.587 60.3008 191.213 59.072 192.864C57.8432 194.515 57.0304 194.093 57.0304 197.766C57.0304 201.44 59.4816 201.849 57.0304 204.307C54.5792 206.765 53.3568 207.161 53.7664 209.209C54.176 211.257 54.9888 213.689 54.1696 214.925C53.87 215.348 53.5337 215.744 53.1648 216.109C51.4499 217.882 50.4927 220.253 50.496 222.72L48.4544 228.032L51.7184 231.302C51.7184 231.302 53.76 230.464 55.808 227.2Z" fill="#314D9E"/>
<path d="M48.6016 228.224C49.3443 227.063 49.8479 225.765 50.0831 224.407C50.3183 223.048 50.2802 221.657 49.9712 220.313C48.896 215.833 48.352 216.569 49.9264 213.971C51.5008 211.373 52.7488 210.829 52.0448 208.608C51.3408 206.387 50.1248 202.912 50.7648 200.8C51.4048 198.688 52.6144 197.817 52.2368 195.539C51.8592 193.261 50.3168 192.179 51.2704 189.683C52.224 187.187 53.5488 187.302 53.1904 185.03C52.832 182.758 51.84 180.909 52.1728 178.848C52.5056 176.787 51.7824 177.325 51.7824 177.325C51.451 179.071 50.9998 180.792 50.432 182.477C49.7216 184.262 49.5616 185.293 49.792 186.592C50.0224 187.891 46.3744 190.169 46.208 191.193C46.0416 192.217 45.2288 193.363 46.2592 195.533C47.2896 197.702 47.5008 199.001 46.7392 200.467C45.9776 201.933 45.2736 201.709 45.7536 204.64C46.2336 207.571 48.2432 207.571 46.6176 209.843C44.992 212.115 44.0576 212.608 44.6592 214.176C45.2608 215.744 46.2272 217.593 45.7344 218.656C45.0071 219.868 44.174 221.014 43.2448 222.08L43.7824 225.331L42.8544 229.811L45.888 231.981C45.888 231.981 47.4048 231.097 48.6016 228.224Z" fill="#314D9E"/>
<path d="M60.5888 224.896L59.6288 248.858H56.9664V267.334H30.0032V248.858H27.5136L26.5536 224.896H60.5888Z" fill="#263238" stroke="#263238" stroke-miterlimit="10"/>
<path d="M26.7264 229.28L26.8672 232.749H60.2752L60.4096 229.28H26.7264Z" fill="white" stroke="#263238" stroke-miterlimit="10"/>
<path d="M60.0192 239.059L60.1088 236.851H27.0336L27.1232 239.059H60.0192Z" fill="white" stroke="#263238" stroke-miterlimit="10"/>
<path d="M27.5136 248.851H26.3232V293.389H30.0032V267.334" stroke="#263238" stroke-miterlimit="10"/>
<path d="M59.6288 248.851H60.64V293.389H56.9664V267.334" stroke="#263238" stroke-miterlimit="10"/>
<path d="M87.6416 202.24C87.6416 202.24 80.3968 160.96 80.3968 151.68C80.3968 142.4 89.9328 127.68 112.051 121.92C134.17 116.16 162.394 120 170.784 124.16C179.174 128.32 184.128 137.28 186.035 152C187.942 166.72 191.757 225.92 191.757 225.92L91.0784 227.52L87.6416 202.24Z" fill="#666666" stroke="#263238" stroke-linecap="round" stroke-linejoin="round"/>
<path d="M207.507 281.798C205.357 284.14 202.792 286.065 199.942 287.475C195.462 289.6 193.318 291.955 193.542 293.619C193.766 295.283 196.384 295.539 200.87 295.75C205.357 295.962 221.203 295.277 223.808 295.277C226.413 295.277 228.531 294.566 228.531 292.435C228.531 290.304 228.058 284.87 228.058 284.87L207.507 281.798Z" fill="white" stroke="#263238" stroke-linecap="round" stroke-linejoin="round"/>
<path d="M216.96 293.382C208.602 293.382 197.37 292.902 193.645 292.742C193.55 293.027 193.52 293.328 193.555 293.626C193.792 295.283 196.397 295.546 200.883 295.757C205.37 295.968 221.216 295.283 223.821 295.283C226.163 295.283 228.122 294.701 228.48 293.024C225.971 293.197 222.144 293.382 216.96 293.382Z" fill="white" stroke="#263238" stroke-linecap="round" stroke-linejoin="round"/>
<path d="M229.965 178.016C229.965 178.016 221.216 213.952 221.216 216.787C221.216 219.622 229.491 232.627 229.728 242.79C229.965 252.954 226.182 272.819 226.893 274.944C227.603 277.069 228.813 278.49 228.544 280.384C228.275 282.278 227.603 287.238 227.603 287.238C227.603 287.238 224.288 287.475 217.434 286.054C213.533 285.283 209.726 284.094 206.08 282.509C206.08 282.509 205.606 277.542 205.606 276.602C205.606 275.661 206.554 273.286 206.79 271.398C207.027 269.51 206.08 251.066 204.192 241.376C202.304 231.686 198.752 219.149 198.752 212.531C198.752 205.914 198.515 182.509 198.515 182.509C203.087 179.36 207.909 176.592 212.934 174.234C221.446 170.214 227.36 172.346 227.36 172.346L229.965 178.016Z" fill="#314D9E" stroke="#263238" stroke-linecap="round" stroke-linejoin="round"/>
<path d="M216.09 172.973C215.015 173.334 213.963 173.762 212.941 174.253C208.633 176.293 204.466 178.617 200.467 181.21L202.016 184.544C202.016 184.544 218.752 189.92 227.014 188.883L227.366 188.832C228.826 182.714 229.965 178.035 229.965 178.035L228.352 174.528C227.684 174.107 226.954 173.794 226.189 173.6C225.28 173.472 220.698 173.21 216.09 172.973Z" fill="#263238" stroke="#263238" stroke-linecap="round" stroke-linejoin="round"/>
<path d="M233.51 281.798C231.351 284.141 228.778 286.066 225.92 287.475C221.44 289.6 219.302 291.955 219.52 293.619C219.738 295.283 222.355 295.539 226.848 295.75C231.341 295.962 247.181 295.277 249.779 295.277C252.378 295.277 254.509 294.566 254.509 292.435C254.509 290.304 254.035 284.87 254.035 284.87L233.51 281.798Z" fill="white" stroke="#263238" stroke-linecap="round" stroke-linejoin="round"/>
<path d="M242.963 293.382C234.605 293.382 223.373 292.902 219.648 292.742C219.554 293.027 219.523 293.328 219.558 293.626C219.795 295.283 222.394 295.546 226.886 295.757C231.379 295.968 247.219 295.283 249.818 295.283C252.166 295.283 254.118 294.701 254.483 293.024C251.974 293.197 248.147 293.382 242.963 293.382Z" fill="white" stroke="#263238" stroke-linecap="round" stroke-linejoin="round"/>
<path d="M256 178.016C256 178.016 247.251 213.952 247.251 216.787C247.251 219.622 255.526 232.627 255.763 242.79C256 252.954 252.218 272.819 252.922 274.944C253.626 277.069 254.842 278.49 254.579 280.384C254.317 282.278 253.632 287.238 253.632 287.238C253.632 287.238 250.323 287.475 243.469 286.054C239.57 285.283 235.766 284.094 232.122 282.509C232.122 282.509 231.648 277.542 231.648 276.602C231.648 275.661 232.595 273.286 232.832 271.398C233.069 269.51 232.122 251.066 230.227 241.376C228.333 231.686 224.794 219.149 224.794 212.531C224.794 205.914 224.557 182.509 224.557 182.509C229.127 179.358 233.95 176.591 238.976 174.234C247.488 170.214 253.395 172.346 253.395 172.346L256 178.016Z" fill="#314D9E" stroke="#263238" stroke-linecap="round" stroke-linejoin="round"/>
<path d="M248.147 171.808C244.95 172.003 241.822 172.827 238.944 174.234C233.918 176.591 229.095 179.359 224.525 182.509C224.525 182.509 224.525 185.21 224.589 189.03C226.093 189.344 230.246 189.959 238.17 189.485C246.912 188.96 252.384 187.258 253.862 186.746L254.323 184.826L254.49 176.666C254.49 176.666 250.56 173.44 248.147 171.808Z" fill="#263238" stroke="#263238" stroke-linecap="round" stroke-linejoin="round"/>
<path d="M205.094 103.981C205.094 103.981 199.334 105.741 197.894 106.701C196.454 107.661 194.214 115.181 193.574 116.941C192.934 118.701 189.574 127.821 189.574 127.821L195.014 128.941C195.014 128.941 194.854 134.381 195.654 136.621C196.454 138.861 202.214 145.581 202.214 145.581L204.294 151.181L202.054 182.221C202.054 182.221 210.214 186.541 223.974 187.821C237.734 189.101 247.174 187.821 248.294 187.181C248.958 186.8 249.654 186.479 250.374 186.221L251.334 181.741L252.774 185.901C254.572 185.733 256.344 185.357 258.054 184.781C259.974 183.981 262.854 182.381 262.854 182.381C262.854 182.381 256.934 159.981 254.374 153.901C251.814 147.821 247.494 138.381 247.494 138.381C247.494 138.381 245.574 116.461 241.734 109.101C237.894 101.741 230.694 99.8208 225.574 99.3408C220.454 98.8608 205.094 103.981 205.094 103.981Z" fill="#314D9E" stroke="#263238" stroke-linecap="round" stroke-linejoin="round"/>
<path d="M203.52 104.768C202.444 108.424 201.848 112.204 201.747 116.013L203.52 104.768Z" fill="white"/>
<path d="M203.52 104.768C202.444 108.424 201.848 112.204 201.747 116.013" stroke="#263238" stroke-width="2" stroke-linecap="round" stroke-linejoin="round"/>
<path d="M202.522 140.16C202.452 140.158 202.383 140.148 202.317 140.128C201.974 140.002 201.642 139.848 201.325 139.667C201.037 139.859 200.8 140 200.685 140.07C200.54 140.136 200.377 140.145 200.226 140.097C200.075 140.049 199.948 139.946 199.868 139.809C199.788 139.672 199.762 139.51 199.795 139.355C199.828 139.2 199.917 139.063 200.045 138.97L200.224 138.861C199.628 138.351 199.185 137.687 198.944 136.941C198.304 134.899 197.894 117.683 199.014 115.891C199.315 115.406 199.762 115.028 200.291 114.812C200.82 114.596 201.403 114.552 201.958 114.688C202.598 114.861 204.192 115.584 204.339 118.566C204.525 122.246 204.749 134.746 204.531 136.256C204.403 137.133 203.443 138.086 202.502 138.816C202.573 138.85 202.645 138.878 202.72 138.899C202.8 138.926 202.874 138.968 202.937 139.024C203.001 139.079 203.053 139.146 203.091 139.222C203.128 139.297 203.15 139.38 203.156 139.464C203.161 139.548 203.15 139.632 203.123 139.712C203.083 139.841 203.003 139.953 202.895 140.033C202.787 140.114 202.656 140.158 202.522 140.16ZM201.318 115.84C201.075 115.844 200.836 115.908 200.623 116.028C200.411 116.147 200.232 116.318 200.102 116.525C199.296 117.914 199.59 134.586 200.173 136.531C200.385 137.152 200.782 137.693 201.312 138.08C202.336 137.325 203.2 136.506 203.27 136.032C203.462 134.695 203.27 122.534 203.066 118.586C202.989 117.082 202.477 116.096 201.645 115.885C201.539 115.854 201.429 115.839 201.318 115.84Z" fill="white" stroke="#263238" stroke-linecap="round" stroke-linejoin="round"/>
<path d="M200.205 138.842L201.325 139.648C200.866 140.03 200.344 140.329 199.782 140.531C199.187 140.653 198.714 140.16 200.205 138.842Z" fill="#263238" stroke="#263238" stroke-linecap="round" stroke-linejoin="round"/>
<path d="M202.509 138.81L201.325 139.648C201.325 139.648 202.528 141.248 203.84 140.653C205.152 140.058 202.509 138.81 202.509 138.81Z" fill="#263238" stroke="#263238" stroke-linecap="round" stroke-linejoin="round"/>
<path d="M219.52 99.2385C219.52 99.2385 216.96 112.071 216.96 122.131" stroke="#263238" stroke-width="2" stroke-linecap="round" stroke-linejoin="round"/>
<path d="M219.891 124.499C219.891 127.008 218.432 129.043 216.634 129.043C214.835 129.043 213.376 127.008 213.376 124.499C213.376 121.99 214.835 119.962 216.634 119.962C218.432 119.962 219.891 121.997 219.891 124.499Z" fill="white" stroke="#263238" stroke-linecap="round" stroke-linejoin="round"/>
<path d="M217.523 123.911C217.523 125.504 216.595 126.797 215.45 126.797C214.304 126.797 213.376 125.517 213.376 123.911C213.376 122.304 214.304 121.024 215.45 121.024C216.595 121.024 217.523 122.317 217.523 123.911Z" fill="white" stroke="#263238" stroke-linecap="round" stroke-linejoin="round"/>
<path d="M249.146 116.141L244.294 120.941L241.574 115.981L249.146 116.141Z" fill="#263238" stroke="#263238" stroke-linecap="round" stroke-linejoin="round"/>
<path d="M228.026 120.192L229.946 137.043C229.946 137.043 202.214 142.381 199.226 142.163C195.66 141.78 192.057 142.371 188.8 143.872C184.531 145.792 182.4 146.861 182.611 147.923C182.822 148.986 184.742 152.403 184.742 152.403C184.742 152.403 188.371 152.621 188.582 151.981C188.723 151.494 188.796 150.99 188.8 150.483C188.8 150.483 192.64 150.701 194.342 149.843C195.435 149.279 196.442 148.562 197.331 147.712C197.331 147.712 219.731 149.421 228.262 149.632C236.794 149.843 246.611 149.203 247.68 147.712C248.749 146.221 243.84 115.712 243.84 115.712L228.026 120.192Z" fill="white" stroke="#263238" stroke-linecap="round" stroke-linejoin="round"/>
<path d="M229.946 137.043C229.946 137.043 238.56 133.958 243.386 135.827" stroke="#263238" stroke-linecap="round" stroke-linejoin="round"/>
<path d="M199.226 142.163L199.725 147.84L202.259 148.237L201.722 141.831L199.226 142.163Z" fill="white" stroke="#263238" stroke-linecap="round" stroke-linejoin="round"/>
<path d="M202.656 141.715C202.688 142.304 201.824 142.835 200.736 142.899C199.648 142.963 198.707 142.541 198.669 141.952C198.63 141.363 199.501 140.832 200.589 140.768C201.677 140.704 202.618 141.127 202.656 141.715Z" fill="white" stroke="#263238" stroke-linecap="round" stroke-linejoin="round"/>
<path d="M188.774 150.483L186.509 149.843" stroke="#263238" stroke-linecap="round" stroke-linejoin="round"/>
<path d="M226.317 110.592L227.386 122.752L249.146 116.141C249.146 116.141 241.92 103.552 237.837 100.352C233.754 97.1521 225.466 99.9233 224.397 100.781" fill="#314D9E"/>
<path d="M226.317 110.592L227.386 122.752L249.146 116.141C249.146 116.141 241.92 103.552 237.837 100.352C233.754 97.1521 225.466 99.9233 224.397 100.781" stroke="#263238" stroke-linecap="round" stroke-linejoin="round"/>
<path d="M184.774 70.2209C184.774 70.2209 176.934 77.5809 180.134 81.1009C183.334 84.6209 187.814 86.8609 188.454 90.8609C189.094 94.8609 190.374 97.2609 188.614 100.781C186.854 104.301 185.574 105.101 185.574 105.101C185.574 105.101 193.094 108.941 197.894 108.621C202.694 108.301 209.574 102.861 209.574 102.861C209.574 102.861 220.774 102.701 225.734 98.3809C230.694 94.0609 230.534 86.7009 228.454 81.5809C226.374 76.4609 219.174 70.4001 215.68 66.5601C212.186 62.7201 205.28 60.1601 198.08 60.9601C190.88 61.7601 184.774 70.2209 184.774 70.2209Z" fill="#263238" stroke="#263238" stroke-linecap="round" stroke-linejoin="round"/>
<path d="M202.88 104.461C202.88 104.461 204.32 108.141 205.28 111.501C206.24 114.861 208.8 123.341 208.8 122.861C208.8 122.381 213.92 109.581 215.2 105.901C215.964 103.731 216.448 101.473 216.64 99.1808L212.32 89.1008C210.965 92.1321 209.005 94.8545 206.56 97.1008C202.72 100.461 201.76 102.061 201.76 102.061L202.88 104.461Z" fill="white" stroke="#263238" stroke-linecap="round" stroke-linejoin="round"/>
<path d="M203.597 105.907C203.597 105.907 210.208 104.045 213.101 101.568C215.994 99.0912 216.198 98.464 216.198 98.464L212.685 91.8528L203.597 105.907Z" fill="#263238" stroke="#263238" stroke-linecap="round" stroke-linejoin="round"/>
<path d="M185.734 83.0208C185.734 83.0208 188.614 90.2208 189.094 92.3008C189.574 94.3808 191.334 98.3808 194.054 100.781C196.774 103.181 198.534 106.381 202.854 105.741C207.174 105.101 212.454 97.4208 213.414 95.0208C214.374 92.6208 212.134 86.0608 212.134 85.2608C212.122 85.0173 212.039 84.7825 211.898 84.5841C211.756 84.3857 211.561 84.2319 211.334 84.1408C211.334 84.1408 203.654 87.1808 198.374 84.9408C194.847 83.3628 191.518 81.3759 188.454 79.0208L185.734 83.0208Z" fill="white" stroke="#263238" stroke-linecap="round" stroke-linejoin="round"/>
<path d="M207.654 86.8609C207.654 86.8609 209.734 81.4209 212.774 82.0609C215.814 82.7009 215.494 87.9809 213.894 89.9009C212.294 91.8209 211.014 90.8609 211.014 90.8609" fill="white"/>
<path d="M207.654 86.8609C207.654 86.8609 209.734 81.4209 212.774 82.0609C215.814 82.7009 215.494 87.9809 213.894 89.9009C212.294 91.8209 211.014 90.8609 211.014 90.8609" stroke="#263238" stroke-linecap="round" stroke-linejoin="round"/>
<path d="M194.56 88.3201C194.765 89.3207 194.872 90.3388 194.88 91.3601C194.88 92.9601 194.08 95.5201 195.52 96.1601C196.96 96.8001 199.04 96.1601 199.52 95.3601" stroke="#263238" stroke-linecap="round" stroke-linejoin="round"/>
<path d="M197.254 98.5601C197.254 98.5601 201.574 99.5201 203.974 94.5601" stroke="#263238" stroke-linecap="round" stroke-linejoin="round"/>
<path d="M199.174 89.421C199.974 89.7235 200.852 89.7457 201.666 89.4842C202.48 89.2226 203.181 88.6926 203.654 87.981" stroke="#263238" stroke-linecap="round" stroke-linejoin="round"/>
<path d="M190.534 90.5408C190.534 90.5408 192.614 91.5008 193.894 90.0608" stroke="#263238" stroke-linecap="round" stroke-linejoin="round"/>
<path d="M193.734 87.5008C193.734 87.5008 191.654 86.0608 189.894 87.8208" stroke="#263238" stroke-linecap="round" stroke-linejoin="round"/>
<path d="M196.614 85.9009C196.614 85.9009 197.574 84.3009 200.614 84.6209" stroke="#263238" stroke-linecap="round" stroke-linejoin="round"/>
<path d="M166.234 127.731C166.234 127.731 171.994 129.011 173.914 136.48C175.834 143.949 185.203 174.08 185.203 174.08C185.203 174.08 195.117 179.744 198.106 180.173C201.094 180.602 203.648 180.813 203.866 184.013C204.083 187.213 203.226 192.333 201.517 193.184C199.808 194.035 193.408 194.042 188.717 193.824C184.026 193.606 181.037 192.544 178.477 190.842C175.917 189.139 173.146 172.282 170.157 164.173C167.168 156.064 161.114 139.27 161.754 135.008C162.394 130.746 164.102 127.731 166.234 127.731Z" fill="#314D9E" stroke="#263238" stroke-linecap="round" stroke-linejoin="round"/>
<path d="M188.8 197.76L184.685 197.453C183.031 197.327 181.368 197.548 179.804 198.1C178.24 198.652 176.808 199.524 175.599 200.66C174.39 201.796 173.431 203.172 172.782 204.699C172.134 206.226 171.811 207.871 171.834 209.53L172.602 292.647C172.607 293.281 172.862 293.889 173.313 294.336C173.764 294.783 174.373 295.034 175.008 295.034H212.653L222.317 197.44L188.8 197.76Z" fill="#333333" stroke="#263238" stroke-linecap="round" stroke-linejoin="round"/>
<path d="M212.64 295.04C212.005 295.04 211.396 294.789 210.945 294.342C210.494 293.895 210.239 293.288 210.234 292.653L209.466 209.536C209.443 207.877 209.766 206.232 210.414 204.705C211.063 203.178 212.022 201.803 213.231 200.667C214.44 199.53 215.872 198.659 217.436 198.106C219 197.554 220.663 197.334 222.317 197.459L226.432 197.766C228.055 197.889 229.635 198.342 231.077 199.096C232.519 199.851 233.792 200.892 234.818 202.155C235.843 203.419 236.6 204.878 237.042 206.445C237.485 208.011 237.602 209.651 237.389 211.264L226.56 292.928C226.485 293.507 226.202 294.038 225.764 294.423C225.326 294.809 224.763 295.021 224.179 295.021L212.64 295.04Z" fill="#666666" stroke="#263238" stroke-linecap="round" stroke-linejoin="round"/>
<path d="M125.517 216.32H197.837C199.874 216.32 201.827 217.129 203.267 218.569C204.708 220.01 205.517 221.963 205.517 224V295.04H125.517V216.32Z" fill="#666666" stroke="#263238" stroke-linecap="round" stroke-linejoin="round"/>
<path d="M205.837 243.501H130.317" stroke="#263238" stroke-linecap="round" stroke-linejoin="round"/>
<path d="M174.906 185.683L178.317 189.312C185.651 189.662 192.874 191.248 199.68 194.003C210.342 198.483 224 203.821 224.851 210.003C225.702 216.186 214.4 250.963 212.48 259.501C210.56 268.038 210.342 271.021 210.342 271.021C210.342 271.021 212.262 272.723 211.84 274.221C211.418 275.718 209.062 282.963 209.062 282.963C205.696 283.742 202.271 284.243 198.822 284.461C195.319 284.522 191.818 284.235 188.371 283.603C188.371 283.603 187.731 276.352 188.371 274.643C189.011 272.934 191.36 271.021 191.571 269.741C191.782 268.461 192.64 248.192 192.64 240.301C192.64 232.41 197.12 219.821 197.12 219.821C197.12 219.821 176 218.963 169.811 218.323C163.622 217.683 148.691 203.392 148.262 196.352C147.834 189.312 164.666 181.632 174.906 185.683Z" fill="#263238" stroke="#263238" stroke-linecap="round" stroke-linejoin="round"/>
<path d="M209.28 280.403C209.28 280.403 207.36 276.781 205.011 278.483C202.662 280.186 202.24 282.541 200.96 282.541C199.68 282.541 188.371 280.403 188.371 280.403C188.371 280.403 185.382 292.141 186.451 293.421C187.52 294.701 197.331 295.763 201.6 296.403C205.869 297.043 215.251 299.392 221.44 299.392C227.629 299.392 226.56 294.912 225.062 293.421C223.565 291.93 212.902 286.163 211.411 284.243C210.509 283.079 209.791 281.784 209.28 280.403Z" fill="white" stroke="#263238" stroke-linecap="round" stroke-linejoin="round"/>
<path d="M226.163 296.659C223.619 297.197 221.026 297.469 218.426 297.472C212.877 297.472 208.397 295.341 201.357 294.061C195.821 293.05 188.96 291.386 186.291 290.72C186.144 292.058 186.15 293.088 186.426 293.421C187.494 294.701 197.306 295.763 201.574 296.403C205.843 297.043 215.226 299.392 221.414 299.392C224.742 299.392 225.971 298.093 226.163 296.659Z" fill="white" stroke="#263238" stroke-linecap="round" stroke-linejoin="round"/>
<path d="M130.957 125.952C130.957 125.952 118.157 130.861 113.466 134.061C108.774 137.261 111.757 149.421 111.757 156.243C111.757 163.066 110.477 181.421 110.266 185.043C110.054 188.666 114.746 193.581 117.946 195.501C121.146 197.421 148.454 198.483 155.706 198.483C162.957 198.483 178.534 193.792 177.254 179.923C175.974 166.054 171.494 155.392 170.854 153.043C170.214 150.694 169.997 143.021 170.214 140.883C170.432 138.746 172.134 132.352 168.934 129.363C165.734 126.374 152.294 122.963 146.106 123.181C139.917 123.398 130.957 125.952 130.957 125.952Z" fill="#314D9E" stroke="#263238" stroke-linecap="round" stroke-linejoin="round"/>
<path d="M132.634 140.013C132.945 140.887 133.397 141.704 133.971 142.432C135.769 144.673 137.692 146.809 139.731 148.832C144.384 153.491 151.706 156.595 151.706 156.595C151.706 156.595 154.144 143.738 154.586 137.971C155.027 132.205 151.923 127.552 146.822 125.811C141.722 124.07 132.416 126.029 131.085 129.581C130.112 132.224 131.763 137.562 132.634 140.013Z" fill="white" stroke="#263238" stroke-linecap="round" stroke-linejoin="round"/>
<path d="M133.331 122.003C132.886 122.024 132.45 122.137 132.051 122.336C131.092 122.822 130.352 123.651 129.978 124.659C128.864 127.322 127.981 130.208 127.981 130.208C128.62 133.522 129.51 136.783 130.643 139.962C131.758 142.982 132.587 146.099 133.12 149.274C133.12 149.274 141.101 143.283 142.65 141.959C144.11 140.855 145.67 139.888 147.309 139.072C147.309 139.072 152.627 141.735 155.066 143.283C157.504 144.832 159.501 146.17 159.501 146.17C159.223 141.78 158.327 137.451 156.838 133.312C154.4 126.656 153.293 124.659 151.962 123.335C150.63 122.01 140.429 118.234 133.331 122.003Z" fill="white" stroke="#263238" stroke-linecap="round" stroke-linejoin="round"/>
<path d="M151.68 90.24C151.68 90.24 153.254 88.2239 154.163 89.8175C154.667 90.7195 155.277 91.5575 155.981 92.3136C155.981 92.3136 157.792 93.2224 158.022 94.8096C158.179 95.7851 158.254 96.772 158.246 97.76C158.246 98.4384 160.288 98.8928 160.288 100.032C160.288 101.171 159.155 101.619 158.931 102.752C158.707 103.885 159.68 104.89 158.701 106.381C157.722 107.872 158.79 107.328 157.722 107.878C156.653 108.429 155.526 109.107 155.526 109.107L150.304 91.8271L151.68 90.24Z" fill="#C7C7C7" stroke="#7D7D7D" stroke-linecap="round" stroke-linejoin="round"/>
<path d="M134.528 82.4192C134.528 82.4192 128.486 84.1856 125.965 89.2224C123.443 94.2592 123.194 98.0416 124.454 102.323C125.715 106.605 130.496 118.694 132.013 122.221C133.53 125.747 134.029 132.301 137.05 136.301C140.07 140.301 147.379 143.859 147.379 143.859C147.379 143.859 152.915 136.301 153.926 132.525C154.938 128.749 152.915 121.19 152.915 121.19C152.915 121.19 158.458 114.387 157.702 107.84C156.947 101.293 152.915 92.7488 151.68 90.24C150.445 87.7312 145.862 79.904 134.528 82.4192Z" fill="white" stroke="#263238" stroke-linecap="round" stroke-linejoin="round"/>
<path d="M138.88 92.5119C138.88 92.5119 143.315 90.2975 146.195 90.9631" stroke="#263238" stroke-linecap="round" stroke-linejoin="round"/>
<path d="M137.101 91.6289C137.101 91.6289 141.094 89.6321 143.974 89.6321" stroke="#263238" stroke-linecap="round" stroke-linejoin="round"/>
<path d="M152.915 121.216C152.915 121.216 149.517 123.335 146.413 123.335C143.309 123.335 137.542 120.896 135.77 119.117C135.77 119.117 141.024 125.133 146.605 126.637C152.186 128.141 153.69 125.779 153.69 125.779L152.915 121.216Z" fill="#263238" stroke="#263238" stroke-linecap="round" stroke-linejoin="round"/>
<path d="M125.773 108.16C125.944 108.059 126.108 107.948 126.266 107.827C127.04 107.258 128.435 106.016 128.269 104.531C128.045 102.49 128.269 101.331 127.136 99.7632C126.003 98.1952 124.186 94.7712 124.186 94.7712C122.842 94.6621 121.498 94.9802 120.346 95.68C118.758 96.8128 119.206 97.7216 118.758 99.3088C118.31 100.896 117.165 99.7632 116.486 102.035C115.808 104.307 116.71 105.664 117.619 106.118C118.528 106.573 117.85 107.936 117.85 109.958C117.884 110.691 118.176 111.389 118.673 111.928C119.17 112.468 119.842 112.815 120.57 112.909C121.254 112.909 121.478 113.818 122.387 114.726C123.296 115.635 126.227 114.618 126.227 114.618C126.227 114.618 127.603 113.818 127.827 112.909C128.051 112 125.773 108.16 125.773 108.16Z" fill="#C7C7C7" stroke="#7D7D7D" stroke-linecap="round" stroke-linejoin="round"/>
<path d="M127.731 107.866C127.731 107.866 124.704 103.834 122.688 106.099C120.672 108.365 124.198 113.907 126.214 114.663C128.23 115.418 130.752 113.383 130.752 113.383" fill="white"/>
<path d="M127.731 107.866C127.731 107.866 124.704 103.834 122.688 106.099C120.672 108.365 124.198 113.907 126.214 114.663C128.23 115.418 130.752 113.383 130.752 113.383" stroke="#263238" stroke-linecap="round" stroke-linejoin="round"/>
<path d="M146.118 95.7695C146.118 95.7695 145.862 98.0415 146.368 98.7967C146.874 99.5519 149.894 100.813 149.389 103.078C148.883 105.344 145.862 107.36 144.352 105.344" stroke="#263238" stroke-linecap="round" stroke-linejoin="round"/>
<path d="M142.336 109.376C143.803 109.773 145.356 109.721 146.793 109.227C148.23 108.733 149.487 107.82 150.4 106.605" stroke="#263238" stroke-linecap="round" stroke-linejoin="round"/>
<path d="M134.784 98.9568C134.712 98.9555 134.641 98.9448 134.573 98.9248C134.487 98.9005 134.408 98.8586 134.339 98.8019C134.271 98.7452 134.215 98.6749 134.175 98.5954C134.136 98.516 134.113 98.4291 134.109 98.3403C134.104 98.2516 134.119 98.1629 134.15 98.08C135.277 94.7008 139.558 94.1248 139.738 94.1056C139.912 94.0835 140.089 94.1318 140.228 94.2398C140.367 94.3478 140.458 94.5067 140.48 94.6816C140.502 94.8564 140.454 95.0328 140.346 95.1721C140.238 95.3113 140.079 95.4019 139.904 95.424C139.866 95.424 136.275 95.9168 135.424 98.5024C135.383 98.6384 135.298 98.7569 135.182 98.8392C135.066 98.9215 134.926 98.9628 134.784 98.9568Z" fill="#C7C7C7" stroke="#7D7D7D" stroke-linecap="round" stroke-linejoin="round"/>
<path d="M151.155 94.7649C151.068 94.7663 150.982 94.75 150.902 94.717C150.822 94.684 150.749 94.635 150.688 94.5729C150.199 94.0965 149.576 93.7801 148.903 93.6658C148.23 93.5515 147.537 93.6447 146.918 93.9329C146.761 94.0119 146.578 94.0249 146.41 93.969C146.243 93.9132 146.105 93.7932 146.026 93.6353C145.947 93.4775 145.934 93.2947 145.989 93.1273C146.045 92.9599 146.165 92.8215 146.323 92.7425C147.19 92.3266 148.164 92.1882 149.112 92.3463C150.061 92.5043 150.937 92.9512 151.622 93.6257C151.687 93.6857 151.739 93.7584 151.775 93.8394C151.81 93.9203 151.828 94.0078 151.828 94.0961C151.828 94.1845 151.81 94.272 151.775 94.3529C151.739 94.4339 151.687 94.5066 151.622 94.5665C151.562 94.6297 151.49 94.6799 151.409 94.714C151.329 94.7482 151.242 94.7655 151.155 94.7649Z" fill="#C7C7C7" stroke="#7D7D7D" stroke-linecap="round" stroke-linejoin="round"/>
<path d="M141.837 101.818C141.688 102.747 141.34 103.633 140.818 104.416C140.295 105.199 139.61 105.861 138.81 106.355" stroke="#263238" stroke-linecap="round" stroke-linejoin="round"/>
<path d="M149.645 100.557C150.991 101.503 152.545 102.109 154.176 102.323" stroke="#263238" stroke-linecap="round" stroke-linejoin="round"/>
<path d="M140.16 100.998C140.384 101.798 140.198 102.547 139.744 102.675C139.29 102.803 138.752 102.253 138.528 101.453C138.304 100.653 138.49 99.8976 138.944 99.776C139.398 99.6544 139.942 100.198 140.16 100.998Z" fill="#263238"/>
<path d="M150.202 98.1504C150.419 98.9504 150.234 99.6992 149.786 99.8272C149.338 99.9552 148.787 99.4048 148.57 98.5984C148.352 97.792 148.531 97.0496 148.979 96.9216C149.427 96.7936 149.978 97.344 150.202 98.1504Z" fill="#263238"/>
<path d="M140.269 99.104L137.043 101.254" stroke="#263238" stroke-linecap="round" stroke-linejoin="round"/>
<path d="M147.942 97.2674L151.475 97.1138" stroke="#263238" stroke-linecap="round" stroke-linejoin="round"/>
<path d="M216.09 187.789C216.09 187.789 220.826 189.914 221.696 190.528C222.566 191.142 224.96 194.88 225.158 196.045C225.357 197.21 225.12 197.69 224.39 197.267C223.661 196.845 221.594 194.368 219.994 192.678C218.394 190.989 216.352 189.926 215.853 188.922C215.354 187.917 215.296 187.597 216.09 187.789Z" fill="white" stroke="#263238" stroke-linecap="round" stroke-linejoin="round"/>
<path d="M201.901 182.72C201.901 182.72 209.702 185.28 212.442 186.093C214.491 186.728 216.377 187.805 217.965 189.248C218.746 189.984 223.053 194.867 223.52 196.288C223.987 197.709 224.634 201.51 223.834 201.862C223.034 202.214 222.214 201.28 221.856 200.474C221.446 199.717 220.962 199.003 220.41 198.342C220.41 198.342 221.376 201.421 221.21 202.97C221.043 204.518 220.57 205.459 219.29 205.677C218.01 205.894 216.576 203.757 215.584 201.773C214.981 200.572 214.204 199.465 213.28 198.49L210.221 197.069C210.747 198.609 211.437 200.087 212.282 201.478C213.453 203.226 214.842 203.635 214.336 204.589C213.83 205.542 211.501 205.728 210.406 204.403C209.312 203.078 207.552 201.645 206.566 199.866C205.581 198.086 203.296 193.28 203.296 193.28L197.05 192.192C197.05 192.192 193.395 191.091 193.158 187.238C192.922 183.386 200.211 181.715 201.901 182.72Z" fill="white" stroke="#263238" stroke-linecap="round" stroke-linejoin="round"/>
<path d="M214.669 195.232C214.669 195.232 217.466 198.861 218.387 200.435C219.309 202.01 219.296 205.69 219.296 205.69" stroke="#263238" stroke-linecap="round" stroke-linejoin="round"/>
<path d="M220.41 198.355L217.92 192.723" stroke="#263238" stroke-linecap="round" stroke-linejoin="round"/>
<path d="M138.88 195.923C138.88 195.923 153.171 194.221 160.422 196.781C167.674 199.341 174.72 208.301 174.72 215.763C174.72 223.226 173.222 264.192 173.651 265.261C174.08 266.33 176.422 266.541 176.422 268.672C176.422 270.803 174.72 281.901 174.72 281.901C174.72 281.901 164.691 285.523 161.28 285.523H157.862C157.862 285.523 152.96 272.512 153.171 270.381C153.382 268.25 154.662 266.541 154.662 265.472C154.662 264.403 148.48 242.003 148.48 235.392V220.672L136.531 218.112C136.531 218.112 131.2 202.963 138.88 195.923Z" fill="#263238" stroke="#263238" stroke-linecap="round" stroke-linejoin="round"/>
<path d="M183.437 291.501C183.437 291.501 177.037 284.032 174.477 279.981C171.917 275.93 167.226 273.581 164.454 275.712C161.683 277.843 161.677 283.181 161.677 283.181L156.986 282.323C156.986 282.323 158.694 288.083 159.546 291.283C160.397 294.483 161.677 296.621 167.226 297.472C172.774 298.323 181.946 298.963 184.506 296.403C187.066 293.843 183.437 291.501 183.437 291.501Z" fill="white" stroke="#263238" stroke-linecap="round" stroke-linejoin="round"/>
<path d="M184.506 296.403C184.917 296.068 185.208 295.609 185.337 295.094C185.465 294.58 185.422 294.037 185.216 293.549C184.023 294.226 182.787 294.824 181.517 295.341C176.826 297.261 170.426 296.832 165.094 295.123C163.123 294.558 161.311 293.541 159.802 292.154C160.678 294.874 162.202 296.698 167.226 297.472C172.8 298.323 181.946 298.963 184.506 296.403Z" fill="white" stroke="#263238" stroke-linecap="round" stroke-linejoin="round"/>
<path d="M191.821 183.962C191.821 183.962 191.398 189.024 191.258 190.566C191.117 192.109 191.962 193.946 192.538 194.221C193.114 194.496 193.382 193.946 193.382 192.678V190.566C193.363 190.144 191.821 183.962 191.821 183.962Z" fill="white" stroke="#263238" stroke-linecap="round" stroke-linejoin="round"/>
<path d="M200.23 173.575C200.23 171.373 203.162 166.733 203.162 166.733L204.294 151.181L203.526 148.167L200.109 147.923C198.758 152.455 194.016 168.403 193.389 170.887C192.66 174.261 192.17 177.683 191.923 181.127C191.923 182.343 191.923 187.962 192.416 190.163C192.909 192.365 196.32 194.554 196.32 194.554C196.32 194.554 200.928 194.554 201.658 194.067C202.387 193.581 200.538 191.955 200.538 191.955C200.262 191.955 199.45 185.927 201.178 184.058C202.573 182.567 206.554 184.301 206.554 184.301C206.554 184.301 205.574 181.613 204.352 179.181C203.13 176.749 200.23 175.77 200.23 173.575Z" fill="white" stroke="#263238" stroke-linecap="round" stroke-linejoin="round"/>
<path d="M200.96 194.502C200.96 194.502 197.306 192.538 196.883 191.693C196.461 190.848 196.326 184.384 196.326 184.384" stroke="#263238" stroke-linecap="round" stroke-linejoin="round"/>
<path d="M197.158 194.502C197.158 194.502 194.208 191.411 194.208 190.285C194.208 189.158 193.504 184.384 193.504 184.384" stroke="#263238" stroke-linecap="round" stroke-linejoin="round"/>
<path d="M127.258 197.76L102.867 197.472C102.239 197.421 101.607 197.421 100.979 197.472L96.8576 197.779C95.235 197.902 93.6545 198.354 92.213 199.109C90.7714 199.864 89.4991 200.905 88.4739 202.168C87.4487 203.432 86.6923 204.892 86.2509 206.458C85.8096 208.024 85.6926 209.664 85.9072 211.277L96.7872 292.96C96.8633 293.539 97.1475 294.071 97.5867 294.456C98.026 294.841 98.5903 295.053 99.1744 295.053H129.574L127.258 197.76Z" fill="#333333" stroke="#263238" stroke-linecap="round" stroke-linejoin="round"/>
<path d="M141.056 295.04C141.69 295.038 142.299 294.787 142.749 294.34C143.199 293.893 143.456 293.287 143.462 292.653L144.23 209.536C144.252 207.878 143.928 206.233 143.28 204.706C142.631 203.18 141.672 201.805 140.463 200.669C139.255 199.533 137.823 198.661 136.259 198.108C134.695 197.556 133.033 197.335 131.379 197.459L127.258 197.766C125.635 197.889 124.055 198.341 122.613 199.096C121.171 199.851 119.899 200.892 118.874 202.156C117.849 203.419 117.092 204.879 116.651 206.445C116.21 208.011 116.093 209.651 116.307 211.264L127.187 292.947C127.263 293.526 127.547 294.058 127.987 294.443C128.426 294.828 128.99 295.04 129.574 295.04H141.056Z" fill="#666666" stroke="#263238" stroke-linecap="round" stroke-linejoin="round"/>
<path d="M119.437 131.712C119.437 131.712 110.477 131.923 107.066 137.043C103.654 142.163 100.877 159.661 100.237 164.141C99.5968 168.621 96.8256 184.403 97.8944 187.392C98.9632 190.381 101.734 190.803 106.854 191.021C111.974 191.239 114.317 188.461 115.386 185.261C116.454 182.061 119.226 152.192 119.226 152.192" fill="#314D9E"/>
<path d="M119.437 131.712C119.437 131.712 110.477 131.923 107.066 137.043C103.654 142.163 100.877 159.661 100.237 164.141C99.5968 168.621 96.8256 184.403 97.8944 187.392C98.9632 190.381 101.734 190.803 106.854 191.021C111.974 191.239 114.317 188.461 115.386 185.261C116.454 182.061 119.226 152.192 119.226 152.192" stroke="#263238" stroke-linecap="round" stroke-linejoin="round"/>
<path d="M107.277 176.723C108.557 177.152 120.077 179.923 120.934 182.272C121.206 182.871 121.29 183.538 121.175 184.185C121.061 184.833 120.754 185.431 120.294 185.901C120.294 185.901 116.454 195.072 113.037 195.923C109.619 196.774 101.946 194.432 98.1056 192.723C94.2656 191.014 98.1056 178.003 98.5344 177.363" fill="#314D9E"/>
<path d="M107.277 176.723C108.557 177.152 120.077 179.923 120.934 182.272C121.206 182.871 121.29 183.538 121.175 184.185C121.061 184.833 120.754 185.431 120.294 185.901C120.294 185.901 116.454 195.072 113.037 195.923C109.619 196.774 101.946 194.432 98.1056 192.723C94.2656 191.014 98.1056 178.003 98.5344 177.363" stroke="#263238" stroke-linecap="round" stroke-linejoin="round"/>
<path d="M122.88 188.461C122.88 188.461 123.731 187.181 122.662 186.541C121.594 185.901 119.891 183.981 117.971 183.981C116.051 183.981 112.64 185.683 111.782 189.312C110.925 192.941 111.571 195.501 113.062 195.923C114.554 196.346 117.76 197.203 119.251 197.203C120.742 197.203 121.811 194.003 122.022 193.363C122.234 192.723 122.88 188.461 122.88 188.461Z" fill="#314D9E" stroke="#263238" stroke-linecap="round" stroke-linejoin="round"/>
<path d="M136.717 189.741C136.717 189.741 140.346 194.221 142.054 195.072C143.763 195.923 145.254 196.992 143.974 198.272C142.694 199.552 139.706 198.912 138.426 197.203C137.146 195.494 136.717 189.741 136.717 189.741Z" fill="white" stroke="#263238" stroke-linecap="round" stroke-linejoin="round"/>
<path d="M124.346 188.461C124.346 188.461 134.374 186.963 135.866 186.963C137.357 186.963 139.706 197.632 139.917 199.341C140.128 201.05 140.986 202.112 139.917 202.963C139.452 203.419 138.857 203.718 138.214 203.821C137.627 204.322 136.983 204.752 136.294 205.101C135.654 205.312 133.306 204.883 133.306 204.883C133.306 204.883 133.094 205.741 131.386 205.523C129.677 205.306 123.917 198.061 123.917 198.061C123.917 198.061 119.654 196.992 117.946 195.501C116.237 194.01 116.877 191.443 117.946 189.741C119.014 188.039 121.357 187.603 121.357 187.603L124.346 188.461Z" fill="white" stroke="#263238" stroke-linecap="round" stroke-linejoin="round"/>
<path d="M133.734 191.872L139.066 203.392" stroke="#263238" stroke-linecap="round" stroke-linejoin="round"/>
<path d="M129.677 193.792L136.294 205.101" stroke="#263238" stroke-linecap="round" stroke-linejoin="round"/>
<path d="M133.306 204.883L127.117 195.923" stroke="#263238" stroke-linecap="round" stroke-linejoin="round"/>
</svg>
