<svg width="550" height="659" viewBox="0 0 550 659" fill="none" xmlns="http://www.w3.org/2000/svg">
<path opacity="0.3" fill-rule="evenodd" clip-rule="evenodd" d="M222.871 0.435842C291.346 4.99771 337.029 67.6496 392.107 108.589C446.411 148.952 519.95 173.868 542.18 237.773C564.512 301.972 534.337 371.872 505.026 433.2C478.766 488.144 433.149 527.451 385.568 565.455C335.52 605.43 286.786 662.752 222.871 658.564C159.31 654.4 117.523 592.495 74.9585 545.107C40.5779 506.829 12.7586 463.551 2.43717 413.146C-7.07059 366.715 14.8763 322.67 19.7565 275.527C26.4894 210.487 -2.42094 137.495 36.4182 84.8926C77.9623 28.6266 153.084 -4.21338 222.871 0.435842Z" fill="#EAEDF5"/>
</svg>
