<svg width="624" height="562" viewBox="0 0 624 562" fill="none" xmlns="http://www.w3.org/2000/svg">
<g clip-path="url(#clip0_4_529)">
<path d="M697 498.541H-72V498.926H697V498.541Z" fill="#EBEBEB"/>
<path d="M619.946 523.288H569.008V523.672H619.946V523.288Z" fill="#EBEBEB"/>
<path d="M437.416 527.471H424.051V527.855H437.416V527.471Z" fill="#EBEBEB"/>
<path d="M567.47 509.015H537.955V509.4H567.47V509.015Z" fill="#EBEBEB"/>
<path d="M75.1097 511.599H8.68347V511.983H75.1097V511.599Z" fill="#EBEBEB"/>
<path d="M98.5488 511.599H88.8132V511.983H98.5488V511.599Z" fill="#EBEBEB"/>
<path d="M274.281 518.089H130.201V518.474H274.281V518.089Z" fill="#EBEBEB"/>
<path d="M292.506 429.946H-4.46637C-6.79283 429.942 -9.02261 429.015 -10.6662 427.369C-12.3098 425.722 -13.233 423.491 -13.233 421.164V3.70496C-13.2127 1.39185 -12.2807 -0.81987 -10.6392 -2.44978C-8.99779 -4.07969 -6.77957 -4.99616 -4.46637 -5.00012H292.506C294.835 -5.00012 297.069 -4.07488 298.716 -2.42794C300.363 -0.780997 301.288 1.45273 301.288 3.78186V421.164C301.288 423.494 300.363 425.727 298.716 427.374C297.069 429.021 294.835 429.946 292.506 429.946ZM-4.46637 -4.69252C-6.69085 -4.68845 -8.82284 -3.80192 -10.3943 -2.22753C-11.9659 -0.653135 -12.8485 1.48047 -12.8485 3.70496V421.164C-12.8485 423.389 -11.9659 425.523 -10.3943 427.097C-8.82284 428.671 -6.69085 429.558 -4.46637 429.562H292.506C294.732 429.558 296.866 428.672 298.44 427.098C300.013 425.524 300.9 423.39 300.904 421.164V3.70496C300.9 1.47906 300.013 -0.654513 298.44 -2.22847C296.866 -3.80242 294.732 -4.68846 292.506 -4.69252H-4.46637Z" fill="#EBEBEB"/>
<path d="M625.191 429.946H328.203C325.875 429.942 323.644 429.016 321.998 427.37C320.352 425.724 319.425 423.492 319.421 421.164V3.70496C319.445 1.39044 320.381 -0.821257 322.025 -2.45074C323.668 -4.08023 325.888 -4.9962 328.203 -5.00012H625.191C627.501 -4.99212 629.716 -4.07386 631.354 -2.44438C632.992 -0.814905 633.922 1.3945 633.942 3.70496V421.164C633.942 423.488 633.021 425.717 631.381 427.363C629.74 429.009 627.515 429.938 625.191 429.946ZM328.203 -4.69252C325.977 -4.68846 323.843 -3.80242 322.27 -2.22847C320.696 -0.654513 319.81 1.47906 319.805 3.70496V421.164C319.81 423.39 320.696 425.524 322.27 427.098C323.843 428.672 325.977 429.558 328.203 429.562H625.191C627.417 429.558 629.55 428.672 631.124 427.098C632.698 425.524 633.584 423.39 633.588 421.164V3.70496C633.584 1.47906 632.698 -0.654513 631.124 -2.22847C629.55 -3.80242 627.417 -4.68846 625.191 -4.69252H328.203Z" fill="#EBEBEB"/>
<path d="M231.34 145.878H30.7231V156.182H231.34V145.878Z" fill="#E0E0E0"/>
<path d="M48.7945 107.874H39.951V145.862H48.7945V107.874Z" fill="#EBEBEB"/>
<path d="M91.5356 107.874H82.6921V145.862H91.5356V107.874Z" fill="#EBEBEB"/>
<path d="M140.049 106.929L131.334 108.431L137.787 145.867L146.502 144.365L140.049 106.929Z" fill="#EBEBEB"/>
<path d="M59.7451 112.887H50.9016V145.878H59.7451V112.887Z" fill="#EBEBEB"/>
<path d="M80.0621 112.887H71.2186V145.878H80.0621V112.887Z" fill="#EBEBEB"/>
<path d="M131.339 112.887H122.495V145.878H131.339V112.887Z" fill="#EBEBEB"/>
<path d="M103.151 111.732L94.5176 113.65L101.675 145.855L110.308 143.936L103.151 111.732Z" fill="#EBEBEB"/>
<path d="M67.3737 105.997H62.9596V145.878H67.3737V105.997Z" fill="#EBEBEB"/>
<path d="M119.942 105.997H115.528V145.878H119.942V105.997Z" fill="#EBEBEB"/>
<path d="M212.084 115.81H169.02V145.539H212.084V115.81Z" fill="#EBEBEB"/>
<path d="M30.7076 233.129L231.324 233.129V222.824L30.7076 222.824V233.129Z" fill="#E0E0E0"/>
<path d="M213.253 222.824H222.096V184.835H213.253V222.824Z" fill="#EBEBEB"/>
<path d="M170.512 222.824H179.355V184.835H170.512V222.824Z" fill="#EBEBEB"/>
<path d="M115.562 221.315L124.277 222.817L130.73 185.38L122.015 183.878L115.562 221.315Z" fill="#EBEBEB"/>
<path d="M202.302 222.824H211.146V189.834H202.302V222.824Z" fill="#EBEBEB"/>
<path d="M181.985 222.824H190.829V189.834H181.985V222.824Z" fill="#EBEBEB"/>
<path d="M130.708 222.824H139.552V189.834H130.708V222.824Z" fill="#EBEBEB"/>
<path d="M151.766 220.896L160.398 222.814L167.556 190.61L158.923 188.691L151.766 220.896Z" fill="#EBEBEB"/>
<path d="M194.674 222.824H199.088V182.943H194.674V222.824Z" fill="#EBEBEB"/>
<path d="M142.09 222.824H146.504V182.943H142.09V222.824Z" fill="#EBEBEB"/>
<path d="M49.9788 222.486H93.0428V192.756H49.9788L49.9788 222.486Z" fill="#EBEBEB"/>
<path d="M589.309 57.5964H344.275C342.474 57.5964 341.015 59.0562 341.015 60.857V64.3483C341.015 66.149 342.474 67.6088 344.275 67.6088H589.309C591.11 67.6088 592.57 66.149 592.57 64.3483V60.857C592.57 59.0562 591.11 57.5964 589.309 57.5964Z" fill="#E0E0E0"/>
<path d="M577.62 65.5632H355.949V262.274H577.62V65.5632Z" fill="#E6E6E6"/>
<path d="M571.791 70.9615H361.501V256.983H571.791V70.9615Z" fill="#F0F0F0"/>
<path d="M410.855 70.9615L361.501 256.567V169.347L387.554 70.9615H410.855Z" fill="white"/>
<path d="M428.327 70.9615L378.542 256.983H370.606L420.391 70.9615H428.327Z" fill="white"/>
<path d="M571.791 188.342V218.056L561.717 256.983H553.766L571.791 188.342Z" fill="white"/>
<path d="M434.848 67.6088H431.311V261.135H434.848V67.6088Z" fill="#E6E6E6"/>
<path d="M503.489 67.6088H499.951V261.135H503.489V67.6088Z" fill="#E6E6E6"/>
<path d="M541.493 60.7954C541.493 60.7954 546.599 127.345 575.929 161.258C575.929 161.258 554.566 246.909 554.581 276.777L594.277 269.441L579.974 161.781L586.818 60.8108L541.493 60.7954Z" fill="#E0E0E0"/>
<path d="M392.076 60.7954C392.076 60.7954 386.985 127.345 357.656 161.258C357.656 161.258 379.019 246.909 379.003 276.777L339.292 269.441L353.611 161.781L346.767 60.8108L392.076 60.7954Z" fill="#E0E0E0"/>
<path d="M138.869 72.0384C157.205 67.7106 168.561 49.3379 164.233 31.0017C159.905 12.6655 141.533 1.30934 123.196 5.63708C104.86 9.96482 93.5042 28.3376 97.8319 46.6738C102.16 65.01 120.532 76.3661 138.869 72.0384Z" fill="#E0E0E0"/>
<path d="M135.684 67.449C151.497 64.8822 162.235 49.9824 159.668 34.1695C157.102 18.3565 142.202 7.61834 126.389 10.1851C110.576 12.752 99.8378 27.6517 102.405 43.4647C104.971 59.2777 119.871 70.0158 135.684 67.449Z" fill="#F0F0F0"/>
<path d="M132.4 18.931V39.2019L145.827 31.6042" fill="#F0F0F0"/>
<path d="M132.4 18.931V39.2019L145.827 31.6042" stroke="#E0E0E0" stroke-width="2.46474" stroke-linecap="round" stroke-linejoin="round"/>
<path d="M312.5 567.997C477.193 567.997 610.703 560.202 610.703 550.587C610.703 540.972 477.193 533.177 312.5 533.177C147.807 533.177 14.2972 540.972 14.2972 550.587C14.2972 560.202 147.807 567.997 312.5 567.997Z" fill="#F5F5F5"/>
<path d="M52.8241 502.309C52.5934 500.771 47.2104 463.598 57.9918 450.771C59.0647 449.419 60.424 448.322 61.9718 447.559C63.5196 446.795 65.2174 446.385 66.9429 446.357C88.721 445.849 91.6894 463.275 91.7201 463.505L89.1517 463.905C89.0594 463.275 86.4755 448.525 67.0045 448.956C65.6469 448.978 64.3114 449.303 63.0954 449.907C61.8794 450.511 60.8136 451.379 59.9758 452.447C49.948 464.382 55.3618 501.555 55.3618 501.925L52.8241 502.309Z" fill="#407BFF"/>
<path d="M51.5167 500.617L48.9175 500.541C48.9175 500.187 49.7788 466.32 33.0915 459.307C16.7272 452.463 9.36014 466.551 9.06792 467.151L6.74554 465.982C6.74554 465.813 15.466 449.064 34.0912 456.923C52.4242 464.613 51.5629 499.141 51.5167 500.617Z" fill="#407BFF"/>
<path d="M51.5938 503.278C51.5938 502.74 51.4246 449.156 40.9816 433.484C30.9538 418.442 14.8356 425.517 14.082 425.794L13.0208 423.441C13.2053 423.348 31.8766 415.105 43.1502 432.007C54.0238 448.356 54.1161 501.002 54.1161 503.278H51.5938Z" fill="#407BFF"/>
<path d="M70.0651 447.648C70.0651 447.648 60.5603 451.155 63.344 459.476C66.1278 467.796 96.2572 481.315 96.2572 481.315C96.2572 481.315 108.853 469.765 97.2877 451.017C85.7219 432.268 70.3266 441.727 70.0651 447.648Z" fill="#407BFF"/>
<path d="M40.5201 430.654C40.5201 430.654 47.2565 429.931 46.6721 425.825C46.0876 421.718 20.4338 411.137 5.28448 428.239C5.28448 428.239 14.9893 444.911 29.0158 445.157C43.0424 445.403 40.5201 430.654 40.5201 430.654Z" fill="#407BFF"/>
<path d="M33.5838 458.123C33.5838 458.123 38.1978 454.354 33.2146 452.524C28.2315 450.694 3.53124 451.202 3.28516 475.594C3.28516 475.594 31.9996 480.362 35.5831 471.057C39.1667 461.752 33.5838 458.123 33.5838 458.123Z" fill="#407BFF"/>
<path opacity="0.2" d="M70.0651 447.648C70.0651 447.648 60.5603 451.155 63.344 459.476C66.1278 467.796 96.2572 481.315 96.2572 481.315C96.2572 481.315 108.853 469.765 97.2877 451.017C85.7219 432.268 70.3266 441.727 70.0651 447.648Z" fill="white"/>
<path opacity="0.2" d="M40.5201 430.654C40.5201 430.654 47.2565 429.931 46.6721 425.825C46.0876 421.718 20.4338 411.137 5.28448 428.239C5.28448 428.239 14.9893 444.911 29.0158 445.157C43.0424 445.403 40.5201 430.654 40.5201 430.654Z" fill="white"/>
<path opacity="0.2" d="M33.5838 458.123C33.5838 458.123 38.1978 454.354 33.2146 452.524C28.2315 450.694 3.53124 451.202 3.28516 475.594C3.28516 475.594 31.9996 480.362 35.5831 471.057C39.1667 461.752 33.5838 458.123 33.5838 458.123Z" fill="white"/>
<path d="M75.1713 552.064H30.6L25.8015 503.278H79.9698L75.1713 552.064Z" fill="#407BFF"/>
<path opacity="0.5" d="M75.1713 552.064H30.6L25.8015 503.278H79.9698L75.1713 552.064Z" fill="white"/>
<path d="M82.3537 497.895H23.4175V508.661H82.3537V497.895Z" fill="#407BFF"/>
<path opacity="0.2" d="M82.3537 497.895H23.4175V508.661H82.3537V497.895Z" fill="white"/>
<path d="M531.757 311.828H380.326C378.541 311.826 376.774 312.176 375.124 312.857C373.475 313.539 371.976 314.539 370.713 315.8C369.45 317.061 368.449 318.559 367.765 320.208C367.082 321.857 366.73 323.624 366.73 325.408L348.274 443.019H526.867L545.323 325.408C545.323 321.809 543.894 318.357 541.35 315.811C538.807 313.265 535.356 311.832 531.757 311.828Z" fill="#407BFF"/>
<path opacity="0.4" d="M531.757 311.828H380.326C378.541 311.826 376.774 312.176 375.124 312.857C373.475 313.539 371.976 314.539 370.713 315.8C369.45 317.061 368.449 318.559 367.765 320.208C367.082 321.857 366.73 323.624 366.73 325.408L348.274 443.019H526.867L545.323 325.408C545.323 321.809 543.894 318.357 541.35 315.811C538.807 313.265 535.356 311.832 531.757 311.828Z" fill="white"/>
<path opacity="0.2" d="M499.705 444.803H526.867L545.323 325.454C545.323 321.853 543.892 318.398 541.345 315.852C538.798 313.305 535.344 311.874 531.742 311.874C528.14 311.874 524.686 313.305 522.139 315.852C519.592 318.398 518.161 321.853 518.161 325.454L499.705 444.803Z" fill="black"/>
<path d="M342.614 388.113H278.233H277.541C273.147 388.113 268.932 389.857 265.823 392.963C262.714 396.069 260.966 400.283 260.962 404.677V552.064H358.209V404.646C358.27 400.404 356.675 396.305 353.763 393.218C350.852 390.131 346.853 388.3 342.614 388.113Z" fill="#407BFF"/>
<path opacity="0.5" d="M342.614 388.113H278.233H277.541C273.147 388.113 268.932 389.857 265.823 392.963C262.714 396.069 260.966 400.283 260.962 404.677V552.064H358.209V404.646C358.27 400.404 356.675 396.305 353.763 393.218C350.852 390.131 346.853 388.3 342.614 388.113Z" fill="white"/>
<path opacity="0.6" d="M277.541 388.082C273.147 388.082 268.932 389.827 265.823 392.933C262.714 396.039 260.966 400.252 260.962 404.646V552.064H294.121V404.646C294.117 400.252 292.368 396.039 289.259 392.933C286.151 389.827 281.936 388.082 277.541 388.082Z" fill="white"/>
<path d="M431.695 429.793H304.948V552.064H431.695V429.793Z" fill="#407BFF"/>
<path opacity="0.4" d="M431.695 429.793H304.948V552.064H431.695V429.793Z" fill="white"/>
<path d="M314.192 419.488H458.764V454.401H314.192C309.558 454.401 305.114 452.56 301.837 449.283C298.561 446.007 296.72 441.563 296.72 436.929C296.728 432.3 298.573 427.864 301.848 424.594C305.124 421.324 309.563 419.488 314.192 419.488Z" fill="#407BFF"/>
<path opacity="0.6" d="M314.192 419.488H458.764V454.401H314.192C309.558 454.401 305.114 452.56 301.837 449.283C298.561 446.007 296.72 441.563 296.72 436.929C296.728 432.3 298.573 427.864 301.848 424.594C305.124 421.324 309.563 419.488 314.192 419.488Z" fill="white"/>
<path d="M513.332 388.113H448.951H448.259C443.865 388.113 439.65 389.857 436.541 392.963C433.432 396.069 431.684 400.283 431.68 404.677V552.064H528.927V404.646C528.988 400.404 527.393 396.305 524.481 393.218C521.57 390.131 517.571 388.3 513.332 388.113Z" fill="#407BFF"/>
<path opacity="0.5" d="M513.332 388.113H448.951H448.259C443.865 388.113 439.65 389.857 436.541 392.963C433.432 396.069 431.684 400.283 431.68 404.677V552.064H528.927V404.646C528.988 400.404 527.393 396.305 524.481 393.218C521.57 390.131 517.571 388.3 513.332 388.113Z" fill="white"/>
<path opacity="0.6" d="M448.259 388.082C443.865 388.082 439.65 389.827 436.541 392.933C433.432 396.039 431.684 400.252 431.68 404.646V552.064H464.839V404.646C464.835 400.252 463.086 396.039 459.977 392.933C456.869 389.827 452.654 388.082 448.259 388.082Z" fill="white"/>
<path d="M602.521 393.696H488.247V552.063H602.521V393.696Z" fill="#407BFF"/>
<path opacity="0.2" d="M602.536 393.696H567.47V552.063H602.536V393.696Z" fill="black"/>
<path opacity="0.2" d="M559.657 399.355H493.938V424.071H559.657V399.355Z" fill="white"/>
<path opacity="0.2" d="M559.657 430.115H493.938V454.831H559.657V430.115Z" fill="white"/>
<path opacity="0.2" d="M559.657 460.875H493.938V526.594H559.657V460.875Z" fill="white"/>
<path opacity="0.2" d="M525.113 406.722C526.549 406.722 527.712 405.559 527.712 404.123C527.712 402.688 526.549 401.524 525.113 401.524C523.678 401.524 522.514 402.688 522.514 404.123C522.514 405.559 523.678 406.722 525.113 406.722Z" fill="black"/>
<path opacity="0.2" d="M525.113 436.39C526.549 436.39 527.712 435.227 527.712 433.791C527.712 432.356 526.549 431.192 525.113 431.192C523.678 431.192 522.514 432.356 522.514 433.791C522.514 435.227 523.678 436.39 525.113 436.39Z" fill="black"/>
<path opacity="0.2" d="M499.705 493.727C499.733 494.084 499.686 494.443 499.569 494.781C499.451 495.12 499.264 495.43 499.021 495.693C498.778 495.956 498.483 496.165 498.155 496.309C497.826 496.452 497.472 496.526 497.114 496.526C496.756 496.526 496.401 496.452 496.073 496.309C495.745 496.165 495.45 495.956 495.207 495.693C494.963 495.43 494.777 495.12 494.659 494.781C494.541 494.443 494.495 494.084 494.522 493.727C494.573 493.074 494.868 492.464 495.348 492.02C495.828 491.575 496.459 491.328 497.114 491.328C497.769 491.328 498.399 491.575 498.88 492.02C499.36 492.464 499.655 493.074 499.705 493.727Z" fill="black"/>
<path d="M561.687 295.156H554.304V393.68H561.687V295.156Z" fill="#263238"/>
<path d="M518.561 329.023H597.445L591.063 273.193H524.944L518.561 329.023Z" fill="#407BFF"/>
<g opacity="0.6">
<path d="M518.561 329.023H597.445L591.063 273.193H524.944L518.561 329.023Z" fill="white"/>
</g>
<path opacity="0.2" d="M554.304 351.493V393.696H561.702V346.879L554.304 351.493Z" fill="white"/>
<path d="M570.93 389.358H545.076L540.462 393.696H575.544L570.93 389.358Z" fill="#407BFF"/>
<path opacity="0.2" d="M570.93 389.358H545.076L540.462 393.696H575.544L570.93 389.358Z" fill="white"/>
<path d="M141.782 159.843C139.771 158.6 137.368 158.156 135.046 158.597C128.463 159.843 126.894 166.287 127.771 171.07C128.15 173.009 129.044 174.811 130.359 176.286C131.674 177.76 133.362 178.854 135.246 179.452C140.429 180.759 144.996 175.961 146.335 172.362C147.183 170.074 147.192 167.559 146.358 165.266C145.524 162.973 143.902 161.051 141.782 159.843Z" fill="#263238"/>
<path d="M257.824 230.56L283.832 223.27C283.832 223.27 283.832 221.732 287.877 218.856C291.922 215.98 302.749 213.719 302.749 213.719C302.749 213.719 307.732 228.13 306.117 228.53C304.502 228.93 289.907 233.805 289.092 232.19L261.408 240.019L257.824 230.56Z" fill="#B97964"/>
<path d="M178.586 200.507C193.766 205.414 217.405 232.19 222.019 233.805C226.633 235.42 270.805 225.869 270.805 225.869L276.957 237.235C276.957 237.235 236.415 251.907 221.973 250.769C207.531 249.631 188.691 228.222 175.187 225.131L178.586 200.507Z" fill="#407BFF"/>
<path opacity="0.5" d="M277.003 237.235C277.003 237.235 236.461 251.907 222.019 250.769C212.684 250.031 201.533 240.849 191.259 233.605C185.553 229.637 180.094 226.238 175.31 225.131L177.064 212.242L178.602 200.507C193.782 205.414 217.421 232.175 222.035 233.805C226.649 235.435 270.82 225.869 270.82 225.869L277.003 237.235Z" fill="white"/>
<path opacity="0.2" d="M191.183 233.605C185.477 229.637 180.017 226.238 175.234 225.131L176.987 212.242C181.339 216.472 188.045 224.162 191.183 233.605Z" fill="black"/>
<path d="M200.949 530.762L190.69 532.562L186.492 518.596L182.662 505.785L194.474 501.663L197.904 517.058L200.949 530.762Z" fill="#E4897B"/>
<path d="M188.383 532.3C188.214 531.162 202.225 529.609 202.225 529.609C202.225 529.609 212.299 536.776 220.943 537.299C229.586 537.822 225.818 543.574 216.544 545.219L193.628 549.264C187.045 550.387 190.183 544.066 188.383 532.3Z" fill="#263238"/>
<path d="M209.146 531.946C207.443 531.868 205.755 531.589 204.117 531.116C204.077 531.125 204.035 531.125 203.994 531.116C203.951 531.093 203.918 531.054 203.902 531.008C203.902 531.008 203.902 531.008 203.902 530.916C203.894 530.86 203.894 530.803 203.902 530.747C203.902 530.593 204.532 527.148 206.27 526.041C206.532 525.866 206.83 525.753 207.141 525.707C207.452 525.662 207.769 525.687 208.07 525.779C208.762 525.964 209.131 526.302 209.193 526.779C209.285 527.517 208.424 528.424 207.393 529.224C208.408 528.857 209.506 528.783 210.561 529.009C210.76 529.076 210.943 529.182 211.099 529.323C211.255 529.463 211.381 529.633 211.469 529.824C211.621 530.052 211.702 530.319 211.702 530.593C211.702 530.867 211.621 531.134 211.469 531.362C211.143 531.615 210.769 531.797 210.369 531.897C209.969 531.998 209.553 532.015 209.146 531.946ZM205.348 530.67C207.532 531.177 210.208 531.485 210.777 530.839C210.777 530.839 210.977 530.608 210.777 530.086C210.734 529.985 210.669 529.895 210.586 529.823C210.504 529.751 210.406 529.699 210.3 529.67C209.162 529.27 206.839 530.039 205.348 530.67ZM207.393 526.379C207.112 526.378 206.838 526.464 206.609 526.625C205.638 527.528 204.986 528.72 204.748 530.024C206.67 528.886 208.47 527.456 208.393 526.825C208.393 526.625 208.024 526.502 207.808 526.44C207.673 526.405 207.533 526.384 207.393 526.379Z" fill="#407BFF"/>
<path opacity="0.2" d="M197.965 517.382L186.538 518.889L182.693 505.923L194.489 501.725L197.965 517.382Z" fill="black"/>
<path d="M132.554 535.146H122.142L120.435 520.673L118.897 507.369L131.247 505.37L131.939 521.135L132.554 535.146Z" fill="#E4897B"/>
<path d="M119.912 534.484C119.912 533.331 134.03 534.238 134.03 534.238C134.03 534.238 142.705 543.051 151.118 545.004C159.531 546.957 154.84 552.033 145.427 552.033H122.142C115.451 552.064 119.635 546.373 119.912 534.484Z" fill="#263238"/>
<path d="M141.444 537.914C139.411 537.664 137.439 537.06 135.615 536.13C135.56 536.114 135.512 536.082 135.476 536.038V535.961C135.438 535.867 135.438 535.762 135.476 535.668C135.476 535.53 136.707 532.239 138.552 531.454C138.836 531.321 139.146 531.252 139.46 531.252C139.773 531.252 140.083 531.321 140.367 531.454C141.013 531.762 141.321 532.162 141.29 532.639C141.29 533.377 140.244 534.177 139.106 534.73C140.144 534.567 141.208 534.689 142.182 535.084C142.369 535.179 142.534 535.313 142.664 535.478C142.794 535.642 142.887 535.833 142.935 536.038C143.051 536.296 143.081 536.586 143.02 536.862C142.959 537.139 142.811 537.389 142.597 537.576C142.259 537.81 141.855 537.928 141.444 537.914ZM136.83 535.899C138.906 536.776 141.444 537.56 142.151 537.007C142.151 537.007 142.397 536.822 142.243 536.268C142.22 536.161 142.171 536.06 142.102 535.975C142.032 535.889 141.944 535.821 141.843 535.776C140.89 535.115 138.475 535.469 136.891 535.822L136.83 535.899ZM139.352 532.023C139.157 532.023 138.964 532.059 138.783 532.131C137.671 532.873 136.825 533.951 136.368 535.207C138.46 534.423 140.475 533.315 140.505 532.685C140.505 532.5 140.198 532.316 139.998 532.223C139.827 532.087 139.627 531.992 139.413 531.946L139.352 532.023Z" fill="#407BFF"/>
<path opacity="0.2" d="M131.939 521.457L120.435 520.949L118.897 507.523L131.247 505.431L131.939 521.457Z" fill="black"/>
<path d="M198.919 509.246L182.001 512.214C165.083 469.873 152.917 434.53 144.381 405.2C139.767 389.374 136.199 375.301 133.446 362.813L134.215 408.953V513.614H117.174C75.5711 315.211 105.055 269.871 105.055 269.871L154.824 261.366C156.794 270.554 158.186 279.857 158.992 289.219L161.238 305.676L180.693 406.138L198.919 509.246Z" fill="#407BFF"/>
<path opacity="0.5" d="M198.919 509.246L182.001 512.214C165.083 469.873 152.917 434.53 144.381 405.2C139.767 389.374 136.199 375.301 133.446 362.813L134.215 408.953V513.614H117.174C75.5711 315.211 105.055 269.871 105.055 269.871L154.824 261.366C156.794 270.554 158.186 279.857 158.992 289.219L161.238 305.676L180.693 406.138L198.919 509.246Z" fill="white"/>
<path d="M179.448 510.138L200.334 503.217L200.041 512.091L182.77 517.612L179.448 510.138Z" fill="#407BFF"/>
<path d="M114.959 511.107L136.737 507.923L134.907 516.613L116.943 519.043L114.959 511.107Z" fill="#407BFF"/>
<path opacity="0.2" d="M144.458 405.2C139.844 389.374 136.276 375.301 133.523 362.813C133.757 348.03 134.83 333.272 136.737 318.61C136.737 318.61 144.027 375.624 144.458 405.2Z" fill="black"/>
<path d="M163.037 299.524L141.782 306.722L137.845 293.787L133.538 305.707L94.95 296.725C98.2567 273.04 111.468 254.138 113.544 246.971C116.405 237.066 118.651 218.118 116.697 205.86V205.706C116.503 204.469 116.565 203.206 116.881 201.994C117.197 200.782 117.759 199.649 118.533 198.665C119.307 197.68 120.275 196.866 121.378 196.273C122.48 195.68 123.693 195.32 124.941 195.217C128.663 194.925 132.416 194.786 136.168 194.771C143.608 194.683 151.045 195.12 158.423 196.078C167.897 197.616 178.617 200.446 178.617 200.446C178.617 200.446 180.155 201.077 179.417 211.212C178.786 220.117 177.079 247.786 158.869 271.194L163.037 299.524Z" fill="#407BFF"/>
<path opacity="0.6" d="M163.037 299.524L141.782 306.722L137.845 293.787L133.538 305.707L94.95 296.725C98.2567 273.04 111.468 254.138 113.544 246.971C116.405 237.066 118.651 218.118 116.697 205.86V205.706C116.503 204.469 116.565 203.206 116.881 201.994C117.197 200.782 117.759 199.649 118.533 198.665C119.307 197.68 120.275 196.866 121.378 196.273C122.48 195.68 123.693 195.32 124.941 195.217C128.663 194.925 132.416 194.786 136.168 194.771C143.608 194.683 151.045 195.12 158.423 196.078C167.897 197.616 178.617 200.446 178.617 200.446C178.617 200.446 180.155 201.077 179.417 211.212C178.786 220.117 177.079 247.786 158.869 271.194L163.037 299.524Z" fill="white"/>
<path d="M141.398 213.719C141.398 213.719 149.887 221.086 152.363 240.019L161.945 213.55L168.528 215.565C168.528 215.565 163.452 191.556 146.996 191.11C130.539 190.664 131.77 215.565 131.77 215.565L141.398 213.719Z" fill="#407BFF"/>
<path opacity="0.5" d="M141.398 213.719C141.398 213.719 149.887 221.086 152.363 240.019L161.945 213.55L168.528 215.565C168.528 215.565 163.452 191.556 146.996 191.11C130.539 190.664 131.77 215.565 131.77 215.565L141.398 213.719Z" fill="white"/>
<path d="M165.267 186.727C165.267 186.727 159.238 190.618 158.193 193.202C158.128 193.361 158.076 193.526 158.039 193.694C157.751 195.162 157.551 196.647 157.439 198.139C162.053 208.059 153.209 225.131 153.209 225.131C149.61 215.044 144.513 205.556 138.091 196.985C147.765 193.202 149.61 174.654 149.61 174.654L154.224 178.268L165.267 186.727Z" fill="#B97964"/>
<path opacity="0.2" d="M165.267 186.727C165.267 186.727 159.238 190.618 158.192 193.202C158.128 193.361 158.076 193.526 158.039 193.694C155.485 191.744 153.448 189.198 152.107 186.278C150.766 183.358 150.163 180.153 150.349 176.945L154.271 178.268L165.267 186.727Z" fill="black"/>
<path d="M171.958 143.248C171.958 143.248 184.154 139.833 190.06 149.676C195.966 159.52 191.244 166.979 187.138 170.532" stroke="#263238" stroke-width="0.601971" stroke-linecap="round" stroke-linejoin="round"/>
<path d="M176.818 142.648C176.818 142.648 186.753 142.955 189.506 151.353C192.259 159.75 190.214 169.178 175.464 179.329C168.251 184.297 150.333 174.592 150.333 174.592L148.903 178.929C146.509 177.195 144.334 175.176 142.428 172.916C136.63 166.118 138.122 143.601 154.209 139.187C171.004 134.65 176.818 142.648 176.818 142.648Z" fill="#263238"/>
<path d="M167.344 145.524C179.97 147.231 183.123 154.552 182.277 167.702C181.216 184.112 176.033 195.186 160.745 189.557C139.906 181.913 146.396 142.648 167.344 145.524Z" fill="#B97964"/>
<path d="M174.203 165.872C174.96 167.895 175.956 169.821 177.171 171.608C176.73 172.083 176.166 172.427 175.542 172.6C174.917 172.774 174.257 172.772 173.634 172.593L174.203 165.872Z" fill="#A24E3F"/>
<path d="M166.621 163.795C166.498 164.826 165.836 165.61 165.083 165.533C164.329 165.456 163.929 164.549 164.037 163.503C164.145 162.457 164.821 161.688 165.575 161.765C166.328 161.842 166.728 162.75 166.621 163.795Z" fill="#263238"/>
<path d="M165.283 161.781L167.636 161.15C167.636 161.15 166.298 162.934 165.283 161.781Z" fill="#263238"/>
<path d="M179.571 165.026C179.463 166.072 178.802 166.856 178.11 166.779C177.417 166.702 176.941 165.795 177.064 164.749C177.187 163.703 177.833 162.919 178.602 163.011C179.371 163.103 179.694 163.995 179.571 165.026Z" fill="#263238"/>
<path d="M178.233 163.026L180.601 162.396C180.601 162.396 179.263 164.18 178.233 163.026Z" fill="#263238"/>
<path d="M167.682 155.06C166.701 154.799 165.674 154.767 164.679 154.967C163.684 155.167 162.749 155.594 161.945 156.213" stroke="#263238" stroke-width="0.872473" stroke-linecap="round" stroke-linejoin="round"/>
<path d="M176.925 155.767C177.818 155.666 178.722 155.768 179.569 156.066C180.416 156.365 181.184 156.851 181.816 157.49" stroke="#263238" stroke-width="0.872473" stroke-linecap="round" stroke-linejoin="round"/>
<path d="M150.641 164.918C150.641 164.918 157.962 155.352 158.162 147.216C158.162 147.216 184.585 140.402 182.354 165.979C182.354 165.979 187.876 143.755 166.236 140.295C144.597 136.834 139.598 166.64 149.472 177.637C149.472 177.637 146.104 170.916 150.641 164.918Z" fill="#263238"/>
<path d="M152.348 167.871C152.419 166.395 151.906 164.949 150.918 163.849C149.93 162.749 148.548 162.083 147.073 161.996C143.105 161.888 140.136 169.686 149.61 172.931C151.01 173.408 151.948 172.131 152.348 167.871Z" fill="#B97964"/>
<path d="M172.957 176.361C172.427 177.867 172.006 179.409 171.696 180.975H170.85C167.036 180.79 165.329 179.437 164.591 178.022C164.239 177.316 164.064 176.535 164.083 175.746C164.08 175.299 164.137 174.854 164.252 174.423C166.56 175.574 169.088 176.219 171.665 176.315C172.542 176.361 172.957 176.361 172.957 176.361Z" fill="#263238"/>
<path d="M171.665 176.284L171.25 177.637C167.667 177.453 165.098 176.853 164.083 175.715C164.08 175.268 164.137 174.823 164.252 174.392C166.56 175.543 169.088 176.188 171.665 176.284Z" fill="white"/>
<path d="M170.85 180.944C167.036 180.76 165.329 179.406 164.591 177.991C166.035 178.083 167.452 178.432 168.774 179.022C169.65 179.429 170.377 180.102 170.85 180.944Z" fill="#DE5753"/>
<path d="M139.321 157.49L140.244 137.834L136.783 132.405C145.764 129.111 155.487 128.397 164.852 130.344L176.864 142.648C176.864 142.648 153.64 136.942 139.321 157.49Z" fill="#407BFF"/>
<path opacity="0.6" d="M176.818 142.648C168.068 140.893 158.98 142.259 151.133 146.508C146.412 149.197 142.371 152.932 139.321 157.428L140.244 137.772L136.783 132.343C145.77 129.07 155.493 128.377 164.852 130.344L176.818 142.648Z" fill="white"/>
<path opacity="0.1" d="M151.133 146.57C146.412 149.258 142.371 152.994 139.321 157.49L140.244 137.834L136.783 132.405L151.133 146.57Z" fill="black"/>
<path d="M198.688 284.421L215.606 288.327C219.828 288.579 224.011 289.291 228.079 290.45C234.477 292.326 241.398 295.064 240.383 296.725C239.368 298.386 228.294 307.291 224.757 306.722C221.22 306.153 211.269 300.57 212.453 297.801L195.935 293.787L198.688 284.421Z" fill="#B97964"/>
<path d="M121.327 196.324C127.386 194.555 139.152 251.692 147.826 261.366C156.501 271.04 208.793 285.282 208.793 285.282L206.147 296.725C206.147 296.725 142.043 288.927 133.523 276.731C125.002 264.534 113.144 231.852 111.637 215.564C110.13 199.277 117.758 197.385 121.327 196.324Z" fill="#407BFF"/>
<path opacity="0.5" d="M121.327 196.324C127.386 194.555 139.152 251.692 147.826 261.366C156.501 271.04 208.793 285.282 208.793 285.282L206.147 296.725C206.147 296.725 142.043 288.927 133.523 276.731C125.002 264.534 113.144 231.852 111.637 215.564C110.13 199.277 117.758 197.385 121.327 196.324Z" fill="white"/>
<path d="M176.172 244.617L159.284 243.479L160.484 234.051L177.387 235.189L176.172 244.617Z" fill="#407BFF"/>
<path opacity="0.5" d="M175.28 243.879L160.73 242.895L161.776 234.79L176.31 235.774L175.28 243.879Z" fill="white"/>
<path d="M169.435 231.483L167.805 236.035H170.527V231.483H169.435Z" fill="#263238"/>
<path d="M220.589 297.786L204.84 300.754C204.84 300.754 188.368 297.155 185.507 297.786C182.647 298.416 175.234 312.951 175.234 312.951C175.234 312.951 200.534 318.472 203.763 317.395C206.993 316.319 209.669 312.12 209.669 312.12L221.973 309.844L220.589 297.786Z" fill="#E4897B"/>
<path d="M252.733 223.239C245.289 234.42 256.101 279.776 256.778 282.652C257.455 285.528 212.422 297.709 212.422 297.709L218.913 317.564C218.913 317.564 275.034 311.09 281.263 304.399C287.492 297.709 280.479 242.71 280.479 242.71L252.795 223.239H252.733Z" fill="#407BFF"/>
<path opacity="0.4" d="M281.263 304.399C275.957 310.105 234.37 315.657 222.235 317.165L218.913 317.564L212.422 297.709L215.375 296.894C225.388 294.125 257.347 285.082 256.778 282.652C256.101 279.776 245.289 234.42 252.733 223.239L257.547 225.269L273.481 237.389L280.479 242.71C280.479 242.71 283.278 264.15 283.739 281.791C284.062 292.51 283.601 301.877 281.263 304.399Z" fill="black"/>
<path opacity="0.1" d="M222.235 317.165L218.913 317.565L212.422 297.709L215.375 296.894L222.235 317.165Z" fill="black"/>
<path opacity="0.2" d="M283.739 281.791C274.511 267.011 273.604 250.815 273.481 237.389L280.479 242.71C280.479 242.71 283.278 264.15 283.739 281.791Z" fill="black"/>
<path d="M151.733 552.033L162.499 376.501H249.657L260.423 552.033H268.113L254.179 326.393C253.843 321.262 251.586 316.447 247.857 312.907C244.129 309.366 239.203 307.361 234.062 307.291H178.386C173.201 307.303 168.214 309.284 164.434 312.833C160.654 316.382 158.362 321.234 158.023 326.408L144.181 552.033H151.733ZM165.575 326.885C165.785 323.661 167.213 320.638 169.569 318.428C171.925 316.218 175.033 314.986 178.263 314.981H234.062C237.287 314.989 240.389 316.221 242.741 318.428C245.093 320.634 246.521 323.651 246.735 326.87L249.319 368.811H163.037L165.575 326.885Z" fill="#407BFF"/>
<path d="M312.654 540.39L300.627 543.897L293.536 517.858L305.564 514.336L312.654 540.39Z" fill="#B97964"/>
<path d="M299.319 538.314H314.038C314.278 538.315 314.511 538.398 314.699 538.549C314.886 538.7 315.016 538.91 315.068 539.144L317.452 549.91C317.549 550.373 317.459 550.855 317.203 551.252C316.947 551.649 316.545 551.93 316.084 552.033C315.951 552.048 315.817 552.048 315.684 552.033C310.931 551.956 307.486 551.664 301.519 551.664C297.843 551.664 286.769 552.048 281.694 552.048C276.618 552.048 275.957 547.05 278.033 546.588C287.354 544.558 294.352 541.743 297.335 539.067C297.878 538.575 298.587 538.306 299.319 538.314Z" fill="#263238"/>
<path opacity="0.2" d="M305.564 514.336L293.536 517.858L297.197 531.285L309.239 527.779L305.564 514.336Z" fill="black"/>
<path d="M351.765 291.173C355.049 307.746 356.417 324.641 355.841 341.527C354.764 368.611 293.552 402.232 292.383 411.69C291.214 421.149 311.224 520.058 311.224 520.058L290.107 527.563C290.107 527.563 248.381 438.021 247.904 416.104C247.427 394.188 293.552 341.527 306.133 327.008C311.024 321.364 306.21 298.647 306.21 298.647L351.765 291.173Z" fill="#263238"/>
<path opacity="0.3" d="M355.841 341.526C355.456 351.324 347.197 361.967 336.754 372.025C320.19 388.051 297.935 402.57 293.26 409.675C292.819 410.272 292.52 410.961 292.383 411.69C291.23 421.164 311.224 520.058 311.224 520.058L290.107 527.548C290.107 527.548 248.381 438.021 247.904 416.104C247.427 394.188 293.552 341.526 306.133 327.008C311.024 321.363 306.21 298.647 306.21 298.647L351.781 291.157C355.059 307.736 356.421 324.637 355.841 341.526Z" fill="white"/>
<path d="M288.799 531.255L314.515 522.534L312.392 515.367L285.539 523.949L288.799 531.255Z" fill="#407BFF"/>
<path opacity="0.6" d="M288.799 531.255L314.515 522.534L312.392 515.367L285.539 523.949L288.799 531.255Z" fill="white"/>
<path opacity="0.2" d="M336.754 372.025C320.19 388.051 297.935 402.57 293.26 409.675C294.152 377.823 332.602 343.926 332.602 343.926L336.754 372.025Z" fill="black"/>
<path d="M370.898 540.39L358.871 543.897L351.765 517.858L363.808 514.336L370.898 540.39Z" fill="#B97964"/>
<path d="M357.563 538.314H372.236C372.476 538.315 372.709 538.398 372.896 538.549C373.084 538.7 373.214 538.91 373.266 539.144L375.65 549.91C375.746 550.375 375.654 550.859 375.395 551.257C375.136 551.654 374.73 551.933 374.266 552.033C374.138 552.048 374.009 552.048 373.881 552.033C369.129 551.956 365.669 551.664 359.717 551.664C356.041 551.664 344.952 552.048 339.892 552.048C334.832 552.048 334.155 547.05 336.231 546.588C345.536 544.558 352.549 541.744 355.533 539.067C356.088 538.564 356.815 538.294 357.563 538.314Z" fill="#263238"/>
<path opacity="0.2" d="M363.808 514.336L351.765 517.858L355.441 531.285L367.468 527.779L363.808 514.336Z" fill="black"/>
<path d="M375.681 285.682C382.512 301.229 385.825 318.092 385.386 335.067C384.309 362.136 351.796 402.216 350.627 411.675C349.458 421.134 369.406 520.058 369.406 520.058L348.274 527.563C348.274 527.563 306.548 438.021 306.056 416.104C305.564 394.188 332.54 343.926 332.54 343.926L326.926 294.095L375.681 285.682Z" fill="#263238"/>
<path opacity="0.3" d="M375.681 285.682C382.512 301.229 385.825 318.092 385.386 335.067C384.309 362.136 351.796 402.216 350.627 411.675C349.458 421.134 369.406 520.058 369.406 520.058L348.274 527.563C348.274 527.563 306.548 438.021 306.056 416.104C305.564 394.188 332.54 343.926 332.54 343.926L326.926 294.095L375.681 285.682Z" fill="white"/>
<path d="M347.028 531.255L372.759 522.534L370.621 515.367L343.783 523.949L347.028 531.255Z" fill="#407BFF"/>
<path opacity="0.6" d="M347.028 531.255L372.759 522.534L370.621 515.367L343.783 523.949L347.028 531.255Z" fill="white"/>
<path d="M385.463 317.534C385.463 317.534 312.069 328.607 304.779 322.717C294.013 314.042 282.124 241.48 252.733 223.239C255.757 218.392 259.431 213.983 263.653 210.135C272.764 201.537 283.778 195.213 295.797 191.679C304.942 189.034 314.443 187.835 323.958 188.126C323.958 188.126 381.572 229.068 385.463 317.534Z" fill="#407BFF"/>
<path opacity="0.3" d="M385.463 317.534C385.463 317.534 312.069 328.607 304.779 322.717C303.988 322.039 303.303 321.246 302.749 320.364C292.475 305.184 280.294 240.388 252.733 223.239C255.757 218.392 259.431 213.983 263.653 210.135L264.883 208.997C273.76 200.991 284.326 195.087 295.797 191.725C296.397 191.541 297.012 191.372 297.627 191.218C306.207 188.913 315.078 187.877 323.958 188.142C323.958 188.142 336.8 197.262 350.765 216.195C359.13 227.566 366.087 239.909 371.482 252.953C379.033 271.342 383.607 290.816 385.032 310.644C385.217 312.935 385.355 315.211 385.463 317.534Z" fill="black"/>
<path opacity="0.1" d="M297.628 191.218C295.308 203.099 291.804 214.717 287.169 225.9C287.169 225.9 272.112 220.332 264.883 208.982C273.76 200.975 284.326 195.072 295.797 191.71C296.397 191.541 297.012 191.372 297.628 191.218Z" fill="black"/>
<path opacity="0.1" d="M385.463 317.534C385.463 317.534 312.069 328.607 304.779 322.717C303.988 322.039 303.303 321.246 302.749 320.364C330.498 321.066 358.205 317.803 385.032 310.674C385.217 312.935 385.355 315.211 385.463 317.534Z" fill="black"/>
<path opacity="0.2" d="M371.482 252.984C345.752 246.201 332.371 217.256 332.371 217.256L350.827 216.226C359.17 227.6 366.106 239.943 371.482 252.984Z" fill="black"/>
<path d="M294.044 192.802C289.584 209.074 283.109 211.873 278.033 210.92C275.027 210.164 272.299 208.563 270.174 206.306C270.7 205.336 270.945 204.239 270.882 203.137C270.781 201.933 270.412 200.767 269.803 199.724C269.194 198.681 268.359 197.787 267.36 197.108C266.384 196.355 265.356 195.672 264.284 195.063L264.607 190.88L266.145 171.024C268.972 175.349 272.113 179.462 275.542 183.328C276.695 184.589 277.91 185.819 279.156 186.942C283.816 191.202 289.015 194.048 294.044 192.802Z" fill="#E4897B"/>
<path opacity="0.2" d="M278.018 210.919C275.011 210.164 272.284 208.563 270.159 206.305C270.684 205.336 270.929 204.238 270.866 203.137C270.766 201.933 270.397 200.767 269.788 199.724C269.178 198.681 268.344 197.787 267.344 197.108C266.368 196.355 265.34 195.671 264.268 195.063L264.591 190.879L279.156 186.911C279.156 186.911 282.801 201.491 278.018 210.919Z" fill="black"/>
<path d="M241.629 170.224C241.629 170.224 237.276 169.763 236.569 175.423C235.861 181.083 237.784 181.19 237.784 181.19C237.784 181.19 236.246 185.927 238.153 187.265C240.06 188.603 241.629 194.263 241.629 194.263L245.935 186.358L241.629 170.224Z" fill="#263238"/>
<path opacity="0.6" d="M241.629 170.224C241.629 170.224 237.276 169.763 236.569 175.423C235.861 181.083 237.784 181.19 237.784 181.19C237.784 181.19 236.246 185.927 238.153 187.265C240.06 188.603 241.629 194.263 241.629 194.263L245.935 186.358L241.629 170.224Z" fill="white"/>
<path d="M275.25 199.292C274.945 199.928 274.601 200.545 274.219 201.138C272.389 204.235 269.589 206.642 266.253 207.988C262.917 209.333 259.23 209.542 255.763 208.582C251.249 207.443 247.342 204.62 244.843 200.692C244.479 200.155 244.15 199.595 243.859 199.016C243.29 197.847 242.721 196.57 242.213 195.201C238.092 184.174 233.816 169.055 247.15 161.088C255.548 156.028 269.651 155.398 274.681 163.841C276.522 166.921 277.71 170.347 278.171 173.906C278.631 177.465 278.354 181.08 277.357 184.528C278.126 188.865 278.879 192.002 275.25 199.292Z" fill="#E4897B"/>
<path d="M280.771 174.192C280.771 174.192 283.001 174.085 282.094 171.116C281.186 168.148 277.372 166.21 277.372 166.21C277.372 166.21 280.448 164.18 276.418 162.257C274.36 161.315 272.025 161.173 269.867 161.857C268.529 160.735 256.778 151.307 248.796 156.92C248.725 156.982 248.679 157.068 248.668 157.161C248.656 157.255 248.678 157.349 248.731 157.427C248.784 157.505 248.864 157.56 248.955 157.583C249.047 157.606 249.143 157.595 249.227 157.551C256.194 152.66 266.698 160.335 269.005 162.165L268.421 162.442C266.022 161.365 248.35 153.783 242.413 162.688C242.385 162.73 242.365 162.778 242.354 162.828C242.344 162.878 242.344 162.93 242.354 162.98C242.364 163.03 242.384 163.077 242.413 163.12C242.441 163.162 242.478 163.198 242.521 163.226C242.562 163.255 242.608 163.274 242.657 163.284C242.706 163.294 242.757 163.294 242.805 163.284C242.854 163.274 242.901 163.254 242.942 163.226C242.983 163.197 243.017 163.161 243.044 163.119C248.258 155.306 263.93 161.365 267.575 162.919C267.179 163.164 266.803 163.442 266.452 163.749C262.792 162.749 251.195 160.012 244.244 163.749C243.059 164.367 242.019 165.227 241.189 166.274C240.36 167.32 239.76 168.53 239.43 169.824C239.416 169.872 239.411 169.922 239.417 169.971C239.423 170.02 239.438 170.067 239.463 170.11C239.487 170.153 239.52 170.191 239.559 170.221C239.598 170.251 239.643 170.273 239.691 170.286H239.799C239.882 170.286 239.963 170.259 240.029 170.209C240.096 170.159 240.145 170.089 240.168 170.009C240.477 168.817 241.032 167.703 241.797 166.739C242.563 165.775 243.522 164.981 244.613 164.411C250.965 160.95 261.807 163.272 265.806 164.318C265.165 165.045 264.645 165.871 264.268 166.764C262.161 171.839 265.576 173.762 267.806 176.315C270.036 178.868 269.005 183.082 268.975 183.22C267.914 185.702 266.305 187.91 264.268 189.68C262.844 189.099 261.248 189.099 259.823 189.68C257.892 190.562 256.346 192.114 255.471 194.048C248.719 193.34 247.627 198.862 247.627 198.862C244.671 196.7 242.316 193.82 240.783 190.495C240.106 196.647 242.321 203.076 244.49 205.706C246.658 208.336 247.735 205.706 247.735 205.706C247.735 205.706 248.242 210.873 251.134 212.811C254.025 214.749 255.04 212.396 255.04 212.396C255.04 212.396 256.578 215.641 262.038 217.01C267.498 218.379 269.236 210.52 269.236 210.52C275.219 215.134 274.711 204.229 274.711 204.229C274.711 204.229 277.649 205.044 277.372 199.723C277.141 195.57 273.45 187.542 271.82 184.174C274.25 183.789 277.972 189.341 277.972 189.341C288.476 190.326 280.771 174.192 280.771 174.192Z" fill="#263238"/>
<path opacity="0.6" d="M280.771 174.192C280.771 174.192 283.001 174.085 282.094 171.116C281.186 168.148 277.372 166.21 277.372 166.21C277.372 166.21 280.448 164.18 276.418 162.257C274.36 161.315 272.025 161.173 269.867 161.857C268.529 160.735 256.778 151.307 248.796 156.92C248.725 156.982 248.679 157.068 248.668 157.161C248.656 157.255 248.678 157.349 248.731 157.427C248.784 157.505 248.864 157.56 248.955 157.583C249.047 157.606 249.143 157.595 249.227 157.551C256.194 152.66 266.698 160.335 269.005 162.165L268.421 162.442C266.022 161.365 248.35 153.783 242.413 162.688C242.385 162.73 242.365 162.778 242.354 162.828C242.344 162.878 242.344 162.93 242.354 162.98C242.364 163.03 242.384 163.077 242.413 163.12C242.441 163.162 242.478 163.198 242.521 163.226C242.562 163.255 242.608 163.274 242.657 163.284C242.706 163.294 242.757 163.294 242.805 163.284C242.854 163.274 242.901 163.254 242.942 163.226C242.983 163.197 243.017 163.161 243.044 163.119C248.258 155.306 263.93 161.365 267.575 162.919C267.179 163.164 266.803 163.442 266.452 163.749C262.792 162.749 251.195 160.012 244.244 163.749C243.059 164.367 242.019 165.227 241.189 166.274C240.36 167.32 239.76 168.53 239.43 169.824C239.416 169.872 239.411 169.922 239.417 169.971C239.423 170.02 239.438 170.067 239.463 170.11C239.487 170.153 239.52 170.191 239.559 170.221C239.598 170.251 239.643 170.273 239.691 170.286H239.799C239.882 170.286 239.963 170.259 240.029 170.209C240.096 170.159 240.145 170.089 240.168 170.009C240.477 168.817 241.032 167.703 241.797 166.739C242.563 165.775 243.522 164.981 244.613 164.411C250.965 160.95 261.807 163.272 265.806 164.318C265.165 165.045 264.645 165.871 264.268 166.764C262.161 171.839 265.576 173.762 267.806 176.315C270.036 178.868 269.005 183.082 268.975 183.22C267.914 185.702 266.305 187.91 264.268 189.68C262.844 189.099 261.248 189.099 259.823 189.68C257.892 190.562 256.346 192.114 255.471 194.048C248.719 193.34 247.627 198.862 247.627 198.862C244.671 196.7 242.316 193.82 240.783 190.495C240.106 196.647 242.321 203.076 244.49 205.706C246.658 208.336 247.735 205.706 247.735 205.706C247.735 205.706 248.242 210.873 251.134 212.811C254.025 214.749 255.04 212.396 255.04 212.396C255.04 212.396 256.578 215.641 262.038 217.01C267.498 218.379 269.236 210.52 269.236 210.52C275.219 215.134 274.711 204.229 274.711 204.229C274.711 204.229 277.649 205.044 277.372 199.723C277.141 195.57 273.45 187.542 271.82 184.174C274.25 183.789 277.972 189.341 277.972 189.341C288.476 190.326 280.771 174.192 280.771 174.192Z" fill="white"/>
<path d="M256.671 180.913C256.978 181.913 256.563 182.897 255.886 183.051C255.209 183.205 254.471 182.497 254.225 181.513C253.979 180.529 254.348 179.514 255.025 179.36C255.702 179.206 256.424 179.867 256.671 180.913Z" fill="#263238"/>
<path d="M245.012 183.605C245.181 183.995 245.193 184.436 245.043 184.835C244.894 185.233 244.597 185.559 244.213 185.743C243.536 185.896 242.798 185.189 242.552 184.205C242.306 183.22 242.675 182.205 243.351 182.051C244.028 181.898 244.828 182.636 245.012 183.605Z" fill="#263238"/>
<path d="M248.827 183.251C248.33 186.691 247.357 190.045 245.935 193.217C246.763 193.561 247.655 193.72 248.551 193.682C249.446 193.645 250.322 193.413 251.118 193.002L248.827 183.251Z" fill="#DE5753"/>
<path d="M259.424 176.299C259.316 176.339 259.2 176.35 259.086 176.331C258.973 176.312 258.867 176.264 258.778 176.192C258.19 175.677 257.491 175.306 256.736 175.109C255.98 174.911 255.189 174.892 254.425 175.053C254.27 175.102 254.102 175.087 253.958 175.012C253.814 174.937 253.706 174.808 253.656 174.654C253.613 174.497 253.631 174.329 253.709 174.185C253.786 174.042 253.916 173.934 254.071 173.885C255.032 173.654 256.033 173.658 256.992 173.896C257.95 174.135 258.837 174.6 259.577 175.253C259.703 175.356 259.784 175.504 259.801 175.665C259.818 175.826 259.771 175.988 259.67 176.115C259.598 176.189 259.515 176.252 259.424 176.299Z" fill="#263238"/>
<path d="M239.06 180.729C238.96 180.808 238.834 180.846 238.707 180.836C238.55 180.799 238.413 180.704 238.325 180.57C238.236 180.435 238.202 180.272 238.23 180.113C238.426 179.145 238.853 178.239 239.474 177.47C240.096 176.702 240.893 176.095 241.798 175.699C241.875 175.67 241.956 175.656 242.038 175.659C242.12 175.662 242.201 175.681 242.276 175.715C242.35 175.75 242.417 175.799 242.472 175.859C242.528 175.92 242.57 175.991 242.598 176.068C242.645 176.224 242.634 176.391 242.566 176.539C242.498 176.686 242.378 176.804 242.229 176.868C241.521 177.2 240.901 177.693 240.417 178.307C239.934 178.921 239.601 179.64 239.445 180.406C239.409 180.485 239.356 180.555 239.289 180.61C239.223 180.666 239.144 180.707 239.06 180.729Z" fill="#263238"/>
<path opacity="0.6" d="M259.424 176.299C259.316 176.339 259.2 176.35 259.086 176.331C258.973 176.312 258.867 176.264 258.778 176.192C258.19 175.677 257.491 175.306 256.736 175.109C255.98 174.911 255.189 174.892 254.425 175.053C254.27 175.102 254.102 175.087 253.958 175.012C253.814 174.937 253.706 174.808 253.656 174.654C253.613 174.497 253.631 174.329 253.709 174.185C253.786 174.042 253.916 173.934 254.071 173.885C255.032 173.654 256.033 173.658 256.992 173.896C257.95 174.135 258.837 174.6 259.577 175.253C259.703 175.356 259.784 175.504 259.801 175.665C259.818 175.826 259.771 175.988 259.67 176.115C259.598 176.189 259.515 176.252 259.424 176.299Z" fill="white"/>
<path opacity="0.6" d="M239.06 180.729C238.96 180.808 238.834 180.846 238.707 180.836C238.55 180.799 238.413 180.704 238.325 180.57C238.236 180.435 238.202 180.272 238.23 180.113C238.426 179.145 238.853 178.239 239.474 177.47C240.096 176.702 240.893 176.095 241.798 175.699C241.875 175.67 241.956 175.656 242.038 175.659C242.12 175.662 242.201 175.681 242.276 175.715C242.35 175.75 242.417 175.799 242.472 175.859C242.528 175.92 242.57 175.991 242.598 176.068C242.645 176.224 242.634 176.391 242.566 176.539C242.498 176.686 242.378 176.804 242.229 176.868C241.521 177.2 240.901 177.693 240.417 178.307C239.934 178.921 239.601 179.64 239.445 180.406C239.409 180.485 239.356 180.555 239.289 180.61C239.223 180.666 239.144 180.707 239.06 180.729Z" fill="white"/>
<path opacity="0.2" d="M248.934 200.646C248.934 200.646 250.057 201.768 251.564 200.046C251.564 200.046 253.702 203.383 255.932 195.986C255.932 195.986 261.9 197.185 263.53 195.986C264.653 195.17 263.53 193.694 263.53 193.694C263.53 193.694 265.975 193.448 266.606 191.633C266.606 191.633 268.544 198.877 257.378 197.508C257.347 197.508 253.764 205.321 248.934 200.646Z" fill="black"/>
<path d="M283.032 182.036C282.667 183.617 281.992 185.111 281.047 186.431C280.102 187.751 278.905 188.871 277.526 189.726C273.835 192.002 270.789 188.972 270.805 184.866C270.805 181.205 272.804 175.499 276.957 174.946C281.109 174.392 283.893 178.114 283.032 182.036Z" fill="#E4897B"/>
<path opacity="0.2" d="M254.148 182.636C254.148 182.636 254.733 185.589 258.27 184.666" stroke="black" stroke-width="0.616186" stroke-linecap="round" stroke-linejoin="round"/>
<path opacity="0.2" d="M245.551 184.912C245.551 184.912 245.474 188.419 243.044 188.142" stroke="black" stroke-width="0.616186" stroke-linecap="round" stroke-linejoin="round"/>
<path opacity="0.2" d="M241.168 173.7C244.692 171.738 248.707 170.83 252.733 171.086" stroke="black" stroke-width="0.616186" stroke-linecap="round" stroke-linejoin="round"/>
<path opacity="0.2" d="M241.168 171.87C242.691 170.448 244.56 169.448 246.588 168.968C248.616 168.488 250.734 168.545 252.733 169.132" stroke="black" stroke-width="0.616186" stroke-linecap="round" stroke-linejoin="round"/>
<path opacity="0.2" d="M242.644 168.609C244.134 167.493 245.876 166.761 247.716 166.476C249.556 166.192 251.437 166.365 253.195 166.979" stroke="black" stroke-width="0.616186" stroke-linecap="round" stroke-linejoin="round"/>
<path d="M390.138 274.147L382.448 282.652C382.448 282.652 377.004 285.943 376.681 287.82C376.358 289.696 383.448 314.043 383.448 314.043C383.448 314.043 393.091 306.629 392.784 304.399C392.476 302.169 387.923 291.157 387.923 291.157L396.398 283.267L390.138 274.147Z" fill="#E4897B"/>
<path d="M323.958 188.172C323.958 188.172 391.507 192.786 416.453 221.624C441.4 250.461 392.722 291.157 392.722 291.157L383.94 276.223C383.94 276.223 403.688 256.229 396.382 242.71C389.077 229.191 351.78 230.329 351.78 230.329C351.78 230.329 315.438 215.349 323.958 188.172Z" fill="#407BFF"/>
<path opacity="0.4" d="M396.336 287.896C394.122 289.988 392.722 291.157 392.722 291.157L383.94 276.223C383.94 276.223 384.694 275.469 385.847 274.147C390.6 268.702 402.273 253.645 396.382 242.71C389.077 229.145 351.78 230.329 351.78 230.329C351.78 230.329 315.453 215.349 323.973 188.172C323.973 188.172 391.522 192.786 416.469 221.609C437.17 245.555 407.118 277.684 396.336 287.896Z" fill="black"/>
<path opacity="0.1" d="M396.336 287.897C394.122 289.988 392.722 291.157 392.722 291.157L383.94 276.223C383.94 276.223 384.694 275.47 385.847 274.147L396.336 287.897Z" fill="black"/>
<path d="M251.195 344.772H162.683C161.664 344.772 160.686 344.367 159.965 343.646C159.243 342.925 158.838 341.947 158.838 340.927C158.838 339.907 159.243 338.929 159.965 338.208C160.686 337.487 161.664 337.082 162.683 337.082H251.195C252.215 337.082 253.193 337.487 253.914 338.208C254.635 338.929 255.04 339.907 255.04 340.927C255.04 341.947 254.635 342.925 253.914 343.646C253.193 344.367 252.215 344.772 251.195 344.772Z" fill="#407BFF"/>
<g opacity="0.2">
<path d="M251.195 344.772H162.683C161.664 344.772 160.686 344.367 159.965 343.646C159.243 342.925 158.838 341.947 158.838 340.927C158.838 339.907 159.243 338.929 159.965 338.208C160.686 337.487 161.664 337.082 162.683 337.082H251.195C252.215 337.082 253.193 337.487 253.914 338.208C254.635 338.929 255.04 339.907 255.04 340.927C255.04 341.947 254.635 342.925 253.914 343.646C253.193 344.367 252.215 344.772 251.195 344.772Z" fill="white"/>
</g>
<path d="M243.505 461.583H154.993C153.974 461.583 152.996 461.178 152.274 460.457C151.553 459.736 151.148 458.758 151.148 457.738C151.148 456.718 151.553 455.74 152.274 455.019C152.996 454.298 153.974 453.893 154.993 453.893H243.505C244.525 453.893 245.503 454.298 246.224 455.019C246.945 455.74 247.35 456.718 247.35 457.738C247.35 458.758 246.945 459.736 246.224 460.457C245.503 461.178 244.525 461.583 243.505 461.583Z" fill="#407BFF"/>
<g opacity="0.2">
<path d="M243.505 461.583H154.993C153.974 461.583 152.996 461.178 152.274 460.457C151.553 459.736 151.148 458.758 151.148 457.738C151.148 456.718 151.553 455.74 152.274 455.019C152.996 454.298 153.974 453.893 154.993 453.893H243.505C244.525 453.893 245.503 454.298 246.224 455.019C246.945 455.74 247.35 456.718 247.35 457.738C247.35 458.758 246.945 459.736 246.224 460.457C245.503 461.178 244.525 461.583 243.505 461.583Z" fill="white"/>
</g>
<path d="M242.475 552.033L253.241 376.501H340.399L351.242 552.033H358.932L344.998 326.393C344.661 321.249 342.393 316.423 338.648 312.881C334.903 309.338 329.958 307.342 324.804 307.291H269.128C263.943 307.303 258.956 309.284 255.176 312.833C251.396 316.382 249.104 321.234 248.765 326.408L234.923 552.033H242.475ZM256.317 326.885C256.527 323.661 257.955 320.638 260.311 318.428C262.667 316.218 265.775 314.986 269.005 314.981H324.804C328.029 314.989 331.131 316.221 333.483 318.428C335.836 320.634 337.263 323.651 337.477 326.87L340.061 368.811H253.779L256.317 326.885Z" fill="#407BFF"/>
<path opacity="0.2" d="M242.475 552.033L253.241 376.501H340.399L351.242 552.033H358.932L344.998 326.393C344.661 321.249 342.393 316.423 338.648 312.881C334.903 309.338 329.958 307.342 324.804 307.291H269.128C263.943 307.303 258.956 309.284 255.176 312.833C251.396 316.382 249.104 321.234 248.765 326.408L234.923 552.033H242.475ZM256.317 326.885C256.527 323.661 257.955 320.638 260.311 318.428C262.667 316.218 265.775 314.986 269.005 314.981H324.804C328.029 314.989 331.131 316.221 333.483 318.428C335.836 320.634 337.263 323.651 337.477 326.87L340.061 368.811H253.779L256.317 326.885Z" fill="white"/>
</g>
<defs>
<clipPath id="clip0_4_529">
<rect width="624" height="562" fill="white"/>
</clipPath>
</defs>
</svg>
